<svg height="496pt" viewBox="-8 0 496 496" width="496pt" xmlns="http://www.w3.org/2000/svg"><path d="m240 488c128.160156 0 232-25.039062 232-56 0-27.519531-82-50.320312-190.230469-55.121094-23.691406 32.722656-41.769531 55.121094-41.769531 55.121094s-18.078125-22.398438-41.769531-55.121094c-108.230469 4.800782-190.230469 27.601563-190.230469 55.121094 0 30.960938 103.839844 56 232 56zm0 0" fill="#414042"/><path d="m281.769531 376.878906c45-62.207031 110.230469-161.878906 110.230469-216.878906 0-83.949219-68.050781-152-152-152s-152 68.050781-152 152c0 55 65.230469 154.671875 110.230469 216.878906 23.691406 32.722656 41.769531 55.121094 41.769531 55.121094s18.078125-22.398438 41.769531-55.121094zm-137.769531-216.878906c0-53.019531 42.980469-96 96-96s96 42.980469 96 96-42.980469 96-96 96-96-42.980469-96-96zm0 0" fill="#d80027"/><path d="m208 152h64v56h-64zm0 0" fill="#acabb1"/><path d="m296 152-56-48-56 48zm0 0" fill="#d80027"/><path d="m280 208v-48h16c3.34375-.003906 6.335938-2.089844 7.496094-5.226562 1.160156-3.140626.242187-6.667969-2.296875-8.84375l-56-48c-2.992188-2.5625-7.40625-2.5625-10.398438 0l-56 48c-2.539062 2.175781-3.457031 5.703124-2.296875 8.84375 1.160156 3.136718 4.152344 5.222656 7.496094 5.226562h16v48c0 4.417969 3.582031 8 8 8h64c4.417969 0 8-3.582031 8-8zm-40-93.464844 34.398438 29.464844h-68.796876zm-24 85.464844v-40h48v40zm0 0"/><path d="m344 160c0-57.4375-46.5625-104-104-104s-104 46.5625-104 104 46.5625 104 104 104c57.410156-.066406 103.933594-46.589844 104-104zm-192 0c0-48.601562 39.398438-88 88-88s88 39.398438 88 88-39.398438 88-88 88c-48.578125-.058594-87.941406-39.421875-88-88zm0 0"/><path d="m240 272c-4.417969 0-8 3.582031-8 8v24c0 4.417969 3.582031 8 8 8s8-3.582031 8-8v-24c0-4.417969-3.582031-8-8-8zm0 0"/><path d="m240 320c-4.417969 0-8 3.582031-8 8v16c0 4.417969 3.582031 8 8 8s8-3.582031 8-8v-16c0-4.417969-3.582031-8-8-8zm0 0"/><path d="m248 384v-16c0-4.417969-3.582031-8-8-8s-8 3.582031-8 8v16c0 4.417969 3.582031 8 8 8s8-3.582031 8-8zm0 0"/><path d="m296.855469 369.671875c44.855469-63.214844 103.144531-155.734375 103.144531-209.671875 0-88.367188-71.632812-160-160-160s-160 71.632812-160 160c0 53.9375 58.289062 146.457031 103.144531 209.671875-87.632812 5.359375-183.144531 24.367187-183.144531 62.328125 0 42.015625 120.734375 64 240 64s240-21.984375 240-64c0-37.960938-95.511719-56.96875-183.144531-62.328125zm-56.855469-353.671875c79.492188.09375 143.90625 64.507812 144 144 0 70.679688-115.617188 222.832031-144 259.105469-28.382812-36.273438-144-188.425781-144-259.105469.09375-79.492188 64.507812-143.90625 144-144zm0 464c-138.785156 0-224-27.960938-224-48 0-16.160156 61.976562-41.167969 178.246094-46.886719 21.257812 29.191407 37.539062 49.445313 39.539062 51.910157 1.519532 1.875 3.800782 2.964843 6.214844 2.964843s4.695312-1.089843 6.214844-2.964843c2-2.464844 18.28125-22.71875 39.539062-51.910157 116.269532 5.71875 178.246094 30.726563 178.246094 46.886719 0 20.039062-85.214844 48-224 48zm0 0"/></svg>