<svg height="512pt" viewBox="0 0 512 512" width="512pt" xmlns="http://www.w3.org/2000/svg"><path d="m439.5 174h-82c-7.730469 0-14-6.269531-14-14v-102c0-7.730469 6.269531-14 14-14h82c7.730469 0 14 6.269531 14 14v102c0 7.730469-6.269531 14-14 14zm0 0" fill="#cee8f2"/><path d="m439.5 44h-29.820312c7.730468 0 14 6.269531 14 14v102c0 7.730469-6.269532 14-14 14h29.820312c7.730469 0 14-6.269531 14-14v-102c0-7.730469-6.269531-14-14-14zm0 0" fill="#9ad5ed"/><path d="m343.5 105.511719v54.488281c0 7.730469 6.269531 14 14 14h82c7.730469 0 14-6.269531 14-14v-54.488281zm0 0" fill="#ffd659"/><path d="m423.597656 105.511719v54.488281c0 7.730469-6.269531 14-14 14h29.902344c7.730469 0 14-6.269531 14-14v-54.488281zm0 0" fill="#ffbd54"/><path d="m398.5 214c-8.285156 0-15-6.714844-15-15v-25h30v25c0 8.285156-6.714844 15-15 15zm0 0" fill="#ff573d"/><path d="m382.5 7.5h30v36.5h-30zm0 0" fill="#ff573d"/><path d="m351.058594 372.5c0 71.421875-68.652344 102.890625-153.34375 102.890625-84.6875 0-153.34375-31.46875-153.34375-102.890625 0-71.425781 68.65625-155.757812 153.34375-155.757812 84.691406 0 153.34375 84.332031 153.34375 155.757812zm0 0" fill="#9c5d35"/><g fill="#633327"><path d="m109.878906 348.28125h-49.757812c-16.636719 0-30.121094-13.484375-30.121094-30.121094v-36.207031c0-40.6875 32.984375-73.671875 73.675781-73.671875h29.632813c3.695312 0 6.691406 2.996094 6.691406 6.691406v103.1875c0 16.636719-13.484375 30.121094-30.121094 30.121094zm0 0"/><path d="m284.121094 348.28125h49.757812c16.636719 0 30.121094-13.484375 30.121094-30.121094v-36.207031c0-40.6875-32.984375-73.671875-73.675781-73.671875h-29.632813c-3.695312 0-6.691406 2.996094-6.691406 6.691406v103.1875c0 16.636719 13.484375 30.121094 30.121094 30.121094zm0 0"/><path d="m140 214.96875v103.191406c0 16.640625-13.488281 30.121094-30.121094 30.121094h-49.757812c-16.632813 0-30.121094-13.480469-30.121094-30.121094v-36.210937c0-40.679688 32.980469-73.667969 73.671875-73.667969h29.636719c.542968 0 1.0625.058594 1.5625.1875 2.9375.703125 5.128906 3.351562 5.128906 6.5zm0 0"/></g><path d="m140 214.96875v103.191406c0 16.640625-13.488281 30.121094-30.121094 30.121094h-13.179687c-16.640625 0-30.121094-13.480469-30.121094-30.121094v-36.210937c0-38.871094 30.113281-70.71875 68.292969-73.480469 2.9375.703125 5.128906 3.351562 5.128906 6.5zm0 0" fill="#572d22"/><path d="m290.324219 208.28125h-29.632813c-.03125 0-.0625.003906-.097656.003906 40.601562.105469 73.480469 33.042969 73.480469 73.667969v36.207031c0 16.636719-13.484375 30.121094-30.121094 30.121094h29.925781c16.636719 0 30.121094-13.484375 30.121094-30.121094v-36.207031c0-40.6875-32.984375-73.671875-73.675781-73.671875zm0 0" fill="#572d22"/><path d="m297 304h-200v-74c0-22.089844 17.910156-40 40-40h120c22.089844 0 40 17.910156 40 40zm0 0" fill="#b0693c"/><path d="m257 190h-29.816406c22.089844 0 40 17.910156 40 40v74h29.816406v-74c0-22.089844-17.910156-40-40-40zm0 0" fill="#9c5d35"/><path d="m273.820312 450.285156h-153.640624c-28.148438 0-51.179688-23.03125-51.179688-51.179687v-77.015625c0-21.890625 17.914062-39.804688 39.804688-39.804688h176.390624c21.890626 0 39.804688 17.914063 39.804688 39.804688v77.015625c0 28.148437-23.03125 51.179687-51.179688 51.179687zm0 0" fill="#e6cabd"/><path d="m285.195312 282.285156h-30.277343c21.894531 0 39.804687 17.914063 39.804687 39.804688v77.015625c0 28.148437-23.03125 51.179687-51.175781 51.179687h30.273437c28.148438 0 51.179688-23.03125 51.179688-51.179687v-77.015625c0-21.890625-17.914062-39.804688-39.804688-39.804688zm0 0" fill="#d9a990"/><path d="m212 335.285156h-30c-11 0-20-9-20-20v-30c0-11 9-20 20-20h30c11 0 20 9 20 20v30c0 11-9 20-20 20zm0 0" fill="#633327"/><path d="m212 265.285156h-30c11 0 20 9 20 20v30c0 11-9 20-20 20h30c11 0 20-9 20-20v-30c0-11-9-20-20-20zm0 0" fill="#572d22"/><path d="m171.578125 474.5h-108c-5.523437 0-10-4.476562-10-10v-20c0-16.570312 13.429687-30 30-30h68c16.570313 0 30 13.429688 30 30v20c0 5.523438-4.476563 10-10 10zm0 0" fill="#d9a990"/><path d="m331.578125 474.5h-108c-5.523437 0-10-4.476562-10-10v-20c0-16.570312 13.429687-30 30-30h68c16.570313 0 30 13.429688 30 30v20c0 5.523438-4.476563 10-10 10zm0 0" fill="#d9a990"/><path d="m151.578125 414.5h-30c16.570313 0 30 13.429688 30 30v20c0 5.523438-4.476563 10-10 10h30c5.523437 0 10-4.476562 10-10v-20c0-16.570312-13.429687-30-30-30zm0 0" fill="#c7957b"/><path d="m311.578125 414.5h-30c16.570313 0 30 13.429688 30 30v20c0 5.523438-4.476563 10-10 10h30c5.523437 0 10-4.476562 10-10v-20c0-16.570312-13.429687-30-30-30zm0 0" fill="#c7957b"/><path d="m489.5 504.5h-467c-8.285156 0-15-6.714844-15-15s6.714844-15 15-15h467c8.285156 0 15 6.714844 15 15s-6.714844 15-15 15zm0 0" fill="#ff573d"/><path d="m489.5 474.5h-30c8.285156 0 15 6.714844 15 15s-6.714844 15-15 15h30c8.285156 0 15-6.714844 15-15s-6.714844-15-15-15zm0 0" fill="#e64028"/><path d="m489.5 467v-459.5c0-4.144531-3.359375-7.5-7.5-7.5h-99.5c-4.140625 0-7.5 3.355469-7.5 7.5v29h-17.5c-11.855469 0-21.5 9.644531-21.5 21.5v102c0 11.855469 9.644531 21.5 21.5 21.5h18.5v17.5c0 9.777344 6.269531 18.113281 15 21.210938v155.9375c0 25.625-20.535156 46.527343-46.007812 47.152343 9.003906-14.75 13.566406-31.796875 13.566406-50.800781 0-7.832031-.789063-15.914062-2.332032-24.089844 9.535157-7.027344 15.273438-18.164062 15.273438-30.25v-36.210937c0-43.285157-34.1875-78.859375-76.980469-81.054688-8.976562-11.578125-22.710937-18.394531-37.519531-18.394531h-120c-14.804688 0-28.542969 6.816406-37.519531 18.394531-11.507813.578125-22.527344 3.519531-32.800781 8.789063-3.6875 1.890625-5.144532 6.410156-3.253907 10.09375 1.328125 2.59375 3.957031 4.082031 6.679688 4.082031 1.152343 0 2.320312-.265625 3.417969-.828125 5.671874-2.910156 11.632812-4.941406 17.804687-6.101562-1.203125 4.21875-1.828125 8.613281-1.828125 13.070312v48.929688c-16.726562 7.5625-28 24.578124-28 43.160156v18.691406h-1.378906c-3.328125 0-6.519532-.703125-9.511719-2.101562-7.964844-3.695313-13.109375-11.75-13.109375-20.519532v-36.210937c0-14.839844 4.796875-28.859375 13.875-40.546875 2.539062-3.273438 1.945312-7.984375-1.324219-10.523438-3.269531-2.542968-7.984375-1.949218-10.523437 1.320313-11.140625 14.34375-17.027344 31.546875-17.027344 49.75v36.210937c0 12.554688 6.347656 24.210938 16.539062 31.128906-1.429687 7.871094-2.167968 15.65625-2.167968 23.210938 0 19.753906 4.941406 37.390625 14.667968 52.527344-3.460937 5.679687-5.460937 12.347656-5.460937 19.472656v20c0 .851562.082031 1.679688.199219 2.5h-23.777344c-12.40625 0-22.5 10.09375-22.5 22.5s10.09375 22.5 22.5 22.5h467c12.40625 0 22.5-10.09375 22.5-22.5s-10.09375-22.5-22.5-22.5zm-99.5-452h15v21.5h-15zm-39 145v-46.984375h57.167969c4.140625 0 7.5-3.359375 7.5-7.5 0-4.144531-3.359375-7.5-7.5-7.5h-57.167969v-40.015625c0-3.585938 2.914062-6.5 6.5-6.5h82c3.585938 0 6.5 2.914062 6.5 6.5v40.015625h-5.667969c-4.140625 0-7.5 3.355469-7.5 7.5 0 4.140625 3.359375 7.5 7.5 7.5h5.667969v46.984375c0 3.585938-2.914062 6.5-6.5 6.5h-82c-3.585938 0-6.5-2.914062-6.5-6.5zm55 21.5v17.5c0 4.136719-3.363281 7.5-7.5 7.5s-7.5-3.363281-7.5-7.5v-17.5zm0 194.648438v-155.9375c8.730469-3.097657 15-11.433594 15-21.210938v-17.5h18.5c11.855469 0 21.5-9.644531 21.5-21.5v-102c0-11.855469-9.644531-21.5-21.5-21.5h-19.5v-21.5h54.5v452h-125.621094c.117188-.820312.199219-1.648438.199219-2.5v-20c0-2.171875-.195313-4.296875-.550781-6.367188 32.09375-2.414062 57.472656-29.28125 57.472656-61.984374zm-105.421875 61.871093c-4.140625 0-7.5 3.359375-7.5 7.5v21.480469h-31v-21.480469c0-4.140625-3.355469-7.5-7.5-7.5-4.140625 0-7.5 3.359375-7.5 7.5v21.480469h-23.5c-1.378906 0-2.5-1.121094-2.5-2.5v-14.191406c0-.007813 0-.019532 0-.027344 0-.011719 0-.019531 0-.027344v-5.753906c0-12.40625 10.09375-22.5 22.5-22.5h68c12.40625 0 22.5 10.09375 22.5 22.5v20c0 1.378906-1.121094 2.5-2.5 2.5h-23.5v-21.480469c0-4.140625-3.355469-7.5-7.5-7.5zm-111.5 26.480469v-6.71875h17v6.71875c0 .851562.082031 1.679688.199219 2.5h-17.398438c.117188-.820312.199219-1.648438.199219-2.5zm167.421875-182.550781v36.210937c0 8.441406-4.652344 16.125-12.148438 20.050782-3.246093 1.703124-6.769531 2.570312-10.472656 2.570312h-1.378906v-18.691406c0-18.582032-11.273438-35.597656-28-43.160156v-48.925782c0-4.449218-.621094-8.832031-1.820312-13.042968 30.585937 5.816406 53.820312 32.773437 53.820312 64.988281zm-219.5-84.449219h120c11.066406 0 21.273438 5.554688 27.304688 14.859375 3.398437 5.242187 5.195312 11.34375 5.195312 17.640625v44.984375c-1.429688-.128906-2.867188-.203125-4.308594-.203125h-47.78125c-4.132812-9.964844-13.964844-16.996094-25.410156-16.996094h-30c-11.445312 0-21.273438 7.03125-25.410156 16.996094h-47.78125c-1.441406 0-2.878906.074219-4.308594.203125v-44.984375c0-6.296875 1.796875-12.394531 5.191406-17.640625 6.035156-9.304687 16.242188-14.859375 27.308594-14.859375zm45 130.285156c-6.894531 0-12.5-5.605468-12.5-12.5v-30c0-6.894531 5.605469-12.5 12.5-12.5h30c6.894531 0 12.5 5.605469 12.5 12.5v30c0 6.894532-5.605469 12.5-12.5 12.5zm-105.5-5.695312c0-13.96875 9.339844-26.648438 22.714844-30.84375.011718-.003906.027344-.007813.039062-.011719 3.089844-.964844 6.304688-1.453125 9.554688-1.453125h45.691406v25.503906c0 15.164063 12.335938 27.5 27.5 27.5h7.5v21.125h-46.859375c-17.171875 0-31.140625 12.785156-31.140625 28.5 0 4.144532 3.359375 7.5 7.5 7.5s7.5-3.355468 7.5-7.5c0-7.441406 7.238281-13.5 16.140625-13.5h108.71875c8.902344 0 16.140625 6.058594 16.140625 13.5 0 4.144532 3.359375 7.5 7.5 7.5s7.5-3.355468 7.5-7.5c0-15.714844-13.96875-28.5-31.140625-28.5h-46.859375v-21.125h7.5c15.164062 0 27.5-12.335937 27.5-27.5v-25.503906h45.691406c3.25 0 6.464844.488281 9.550782 1.453125.015624.003906.03125.007813.042968.011719 13.375 4.195312 22.714844 16.875 22.714844 30.84375v34.800781c0 4.144531 3.359375 7.5 7.5 7.5s7.5-3.355469 7.5-7.5v-1.109375h1.378906c2.777344 0 5.546875-.324219 8.242188-.929688.949218 6 1.4375 11.910157 1.4375 17.648438 0 15.46875-3.507813 29.335938-10.414063 41.347656-.714843-.5-1.4375-.988281-2.183593-1.4375 1.015624-4.34375 1.539062-8.792968 1.539062-13.296875v-10.347656c0-4.144531-3.359375-7.5-7.5-7.5s-7.5 3.355469-7.5 7.5v10.347656c0 2.785157-.273438 5.542969-.796875 8.246094-1.675781-.230469-3.386719-.359375-5.125-.359375h-68c-20.101563 0-36.554687 15.898438-37.457031 35.78125h-17.085938c-.902344-19.882812-17.355468-35.78125-37.457031-35.78125h-68c-2.128906 0-4.210937.1875-6.246094.53125-.546875-2.761719-.832031-5.578125-.832031-8.421875zm-15 33.691406v43.328125c0 4.726563.578125 9.386719 1.699219 13.9375-.332031.214844-.664063.433594-.988281.664063-6.859376-11.984376-10.339844-25.800782-10.339844-41.210938 0-5.644531.472656-11.457031 1.390625-17.351562 2.242187.414062 4.53125.632812 6.859375.632812zm-.421875 108.71875v-20c0-12.40625 10.09375-22.5 22.5-22.5h68c12.40625 0 22.5 10.09375 22.5 22.5v20c0 1.378906-1.121094 2.5-2.5 2.5h-23.5v-21.480469c0-4.140625-3.355469-7.5-7.5-7.5-4.140625 0-7.5 3.359375-7.5 7.5v21.480469h-31v-21.480469c0-4.140625-3.355469-7.5-7.5-7.5-4.140625 0-7.5 3.359375-7.5 7.5v21.480469h-23.5c-1.378906 0-2.5-1.121094-2.5-2.5zm428.421875 32.5h-467c-4.136719 0-7.5-3.363281-7.5-7.5s3.363281-7.5 7.5-7.5h467c4.136719 0 7.5 3.363281 7.5 7.5s-3.363281 7.5-7.5 7.5zm0 0"/><path d="m132.921875 249.5h30c4.140625 0 7.5-3.355469 7.5-7.5s-3.359375-7.5-7.5-7.5h-30c-4.144531 0-7.5 3.355469-7.5 7.5s3.355469 7.5 7.5 7.5zm0 0"/><path d="m230.921875 249.5h30c4.140625 0 7.5-3.355469 7.5-7.5s-3.359375-7.5-7.5-7.5h-30c-4.144531 0-7.5 3.355469-7.5 7.5s3.355469 7.5 7.5 7.5zm0 0"/><path d="m132.5 311.285156c0 4.140625-3.359375 7.5-7.5 7.5s-7.5-3.359375-7.5-7.5 3.359375-7.5 7.5-7.5 7.5 3.359375 7.5 7.5zm0 0"/><path d="m132.5 342.285156c0 4.140625-3.359375 7.5-7.5 7.5s-7.5-3.359375-7.5-7.5 3.359375-7.5 7.5-7.5 7.5 3.359375 7.5 7.5zm0 0"/><path d="m276.5 311.285156c0 4.140625-3.359375 7.5-7.5 7.5s-7.5-3.359375-7.5-7.5 3.359375-7.5 7.5-7.5 7.5 3.359375 7.5 7.5zm0 0"/><path d="m276.5 342.285156c0 4.140625-3.359375 7.5-7.5 7.5s-7.5-3.359375-7.5-7.5 3.359375-7.5 7.5-7.5 7.5 3.359375 7.5 7.5zm0 0"/></svg>