<svg height="512pt" viewBox="0 0 512.001 512" width="512pt" xmlns="http://www.w3.org/2000/svg"><path d="m433.949219 3.394531h-36.1875c-1.988281 0-3.898438.792969-5.304688 2.199219l-24.257812 24.269531c-2.929688 2.929688-2.929688 7.679688 0 10.609375 2.929687 2.925782 7.679687 2.925782 10.609375-.003906l22.0625-22.074219h33.074218c13.34375 0 24.195313 10.855469 24.195313 24.195313v361.324218c0 4.144532 3.359375 7.5 7.5 7.5s7.5-3.355468 7.5-7.5v-361.324218c0-21.613282-17.582031-39.195313-39.191406-39.195313zm0 0" fill="#d6cfc4"/><path d="m104.449219 298.832031h-51.261719c-17.136719 0-31.03125-13.890625-31.03125-31.027343v-37.300782c0-41.914062 33.984375-75.894531 75.898438-75.894531h30.527343c3.808594 0 6.894531 3.085937 6.894531 6.894531v106.300782c0 17.136718-13.890624 31.027343-31.027343 31.027343zm0 0" fill="#633327"/><path d="m283.945312 298.832031h51.265626c17.136718 0 31.027343-13.890625 31.027343-31.027343v-37.300782c0-41.914062-33.980469-75.894531-75.898437-75.894531h-30.527344c-3.808594 0-6.894531 3.085937-6.894531 6.894531v106.300782c0 17.136718 13.894531 31.027343 31.027343 31.027343zm0 0" fill="#633327"/><path d="m135.476562 161.5v106.304688c0 17.140624-13.894531 31.027343-31.027343 31.027343h-13.578125c-17.140625 0-31.027344-13.886719-31.027344-31.027343v-37.304688c0-40.042969 31.015625-72.851562 70.347656-75.695312 3.03125.71875 5.285156 3.449218 5.285156 6.695312zm0 0" fill="#572d22"/><path d="m290.339844 154.609375h-30.527344c-.03125 0-.066406.003906-.097656.003906 41.824218.109375 75.695312 34.042969 75.695312 75.890625v37.300782c0 17.136718-13.890625 31.027343-31.027344 31.027343h30.828126c17.136718 0 31.027343-13.890625 31.027343-31.027343v-37.300782c0-41.914062-33.980469-75.894531-75.898437-75.894531zm0 0" fill="#572d22"/><path d="m297.214844 253.214844h-206.035156v-76.230469c0-22.757813 18.449218-41.207031 41.207031-41.207031h123.621093c22.757813 0 41.207032 18.449218 41.207032 41.207031zm0 0" fill="#b0693c"/><path d="m256.007812 135.777344h-30.714843c22.757812 0 41.207031 18.449218 41.207031 41.207031v76.230469h30.714844v-76.230469c0-22.757813-18.449219-41.207031-41.207032-41.207031zm0 0" fill="#9c5d35"/><path d="m273.339844 403.917969h-158.28125c-28.996094 0-52.722656-23.726563-52.722656-52.726563v-79.339844c0-22.554687 18.453124-41.003906 41.007812-41.003906h181.710938c22.554687 0 41.007812 18.449219 41.007812 41.003906v79.339844c0 29-23.726562 52.726563-52.722656 52.726563zm0 0" fill="#e6cabd"/><path d="m285.054688 230.847656h-31.191407c22.554688 0 41.007813 18.453125 41.007813 41.007813v79.339843c0 28.996094-23.726563 52.722657-52.722656 52.722657h31.1875c29 0 52.722656-23.726563 52.722656-52.722657v-79.339843c.003906-22.554688-18.449219-41.007813-41.003906-41.007813zm0 0" fill="#d9a990"/><g fill="#47251c"><path d="m274.550781 309.882812c-4.140625 0-7.5 3.355469-7.5 7.5 0 7.792969-7.558593 14.132813-16.851562 14.132813h-48.5v-46.070313c0-4.140624-3.359375-7.5-7.5-7.5-4.144531 0-7.5 3.359376-7.5 7.5v46.070313h-48.503907c-9.292968 0-16.851562-6.339844-16.851562-14.132813 0-4.144531-3.359375-7.5-7.5-7.5-4.144531 0-7.5 3.355469-7.5 7.5 0 16.0625 14.289062 29.132813 31.851562 29.132813h112.003907c17.5625 0 31.855469-13.070313 31.855469-29.132813-.003907-4.144531-3.359376-7.5-7.503907-7.5zm0 0"/><path d="m127.234375 260.722656c0 3.980469-3.226563 7.210938-7.210937 7.210938-3.980469 0-7.210938-3.230469-7.210938-7.210938 0-3.984375 3.230469-7.210937 7.210938-7.210937 3.984374 0 7.210937 3.226562 7.210937 7.210937zm0 0"/><path d="m127.234375 292.65625c0 3.984375-3.226563 7.210938-7.210937 7.210938-3.980469 0-7.210938-3.226563-7.210938-7.210938 0-3.980469 3.230469-7.210938 7.210938-7.210938 3.984374 0 7.210937 3.230469 7.210937 7.210938zm0 0"/><path d="m275.582031 260.722656c0 3.980469-3.226562 7.210938-7.210937 7.210938s-7.210938-3.230469-7.210938-7.210938c0-3.984375 3.226563-7.210937 7.210938-7.210937s7.210937 3.226562 7.210937 7.210937zm0 0"/><path d="m275.582031 292.65625c0 3.984375-3.226562 7.210938-7.210937 7.210938s-7.210938-3.226563-7.210938-7.210938c0-3.980469 3.226563-7.210938 7.210938-7.210938s7.210937 3.230469 7.210937 7.210938zm0 0"/></g><path d="m209.652344 285.445312h-30.90625c-11.332032 0-20.605469-9.273437-20.605469-20.605468v-30.902344c0-11.332031 9.273437-20.605469 20.605469-20.605469h30.90625c11.332031 0 20.601562 9.273438 20.601562 20.605469v30.902344c0 11.335937-9.269531 20.605468-20.601562 20.605468zm0 0" fill="#633327"/><path d="m209.652344 213.332031h-30.90625c11.332031 0 20.605468 9.273438 20.605468 20.605469v30.90625c0 11.332031-9.273437 20.601562-20.605468 20.601562h30.90625c11.332031 0 20.601562-9.269531 20.601562-20.601562v-30.90625c0-11.332031-9.269531-20.605469-20.601562-20.605469zm0 0" fill="#572d22"/><path d="m159.089844 181.847656h-30.90625c-4.140625 0-7.5 3.355469-7.5 7.5 0 4.140625 3.359375 7.5 7.5 7.5h30.90625c4.144531 0 7.5-3.359375 7.5-7.5 0-4.144531-3.355469-7.5-7.5-7.5zm0 0" fill="#47251c"/><path d="m260.050781 181.847656h-30.90625c-4.140625 0-7.5 3.355469-7.5 7.5 0 4.140625 3.359375 7.5 7.5 7.5h30.90625c4.140625 0 7.5-3.359375 7.5-7.5 0-4.144531-3.359375-7.5-7.5-7.5zm0 0" fill="#47251c"/><path d="m400.105469 512h-286.960938c-49.117187 0-88.933593-39.816406-88.933593-88.933594v-5.84375h463.578124v7.089844c0 48.429688-39.257812 87.6875-87.683593 87.6875zm0 0" fill="#716680"/><path d="m456.886719 417.222656v7.089844c0 48.429688-39.261719 87.6875-87.6875 87.6875h30.90625c48.425781 0 87.683593-39.257812 87.683593-87.6875v-7.089844zm0 0" fill="#635870"/><path d="m496.546875 417.222656h-481.09375c-8.535156 0-15.453125-6.917968-15.453125-15.449218 0-8.535157 6.917969-15.453126 15.453125-15.453126h481.09375c8.535156 0 15.453125 6.917969 15.453125 15.453126 0 8.53125-6.917969 15.449218-15.453125 15.449218zm0 0" fill="#e8e1d5"/><path d="m496.546875 386.320312h-30.90625c8.535156 0 15.453125 6.917969 15.453125 15.453126 0 8.53125-6.917969 15.453124-15.453125 15.453124h30.90625c8.535156 0 15.453125-6.917968 15.453125-15.453124 0-8.535157-6.917969-15.453126-15.453125-15.453126zm0 0" fill="#d6cfc4"/><path d="m382.152344 87.523438-61.144532-61.144532c-6.035156-6.035156-6.035156-15.816406 0-21.851562 6.035157-6.035156 15.820313-6.035156 21.855469 0l61.144531 61.144531c6.03125 6.035156 6.03125 15.816406 0 21.851563-6.035156 6.035156-15.820312 6.035156-21.855468 0zm0 0" fill="#9ad5ed"/><path d="m485.214844 220.539062c0 10.808594-8.761719 19.570313-19.574219 19.570313-10.808594 0-19.570313-8.761719-19.570313-19.570313 0-10.8125 8.761719-19.574218 19.570313-19.574218 10.8125 0 19.574219 8.761718 19.574219 19.574218zm0 0" fill="#ffbd54"/><path d="m313.257812 78.523438-5.015624 5.011718c-2.925782 2.929688-2.925782 7.675782 0 10.605469 1.464843 1.464844 3.386718 2.195313 5.304687 2.195313s3.839844-.730469 5.304687-2.195313l5.011719-5.011719c2.929688-2.929687 2.929688-7.679687 0-10.605468-2.929687-2.929688-7.675781-2.929688-10.605469 0zm0 0" fill="#9ad5ed"/><path d="m351.335938 102.644531c-3.949219-1.257812-8.164063.933594-9.414063 4.882813l-2.1875 6.898437c-1.253906 3.949219.933594 8.164063 4.882813 9.414063.753906.242187 1.515624.355468 2.269531.355468 3.179687 0 6.132812-2.042968 7.144531-5.234374l2.1875-6.898438c1.253906-3.953125-.933594-8.167969-4.882812-9.417969zm0 0" fill="#9ad5ed"/><path d="m290.328125 46.164062-6.898437 2.1875c-3.949219 1.253907-6.136719 5.46875-4.882813 9.417969 1.011719 3.191407 3.964844 5.234375 7.144531 5.234375.75 0 1.515625-.113281 2.269532-.351562l6.898437-2.1875c3.949219-1.253906 6.132813-5.46875 4.882813-9.417969-1.25-3.945313-5.464844-6.136719-9.414063-4.882813zm0 0" fill="#9ad5ed"/></svg>