<?xml version="1.0" encoding="utf-8"?>
<!-- Generator: Adobe Illustrator 16.0.0, SVG Export Plug-In . SVG Version: 6.00 Build 0)  -->
<!DOCTYPE svg PUBLIC "-//W3C//DTD SVG 1.1//EN" "http://www.w3.org/Graphics/SVG/1.1/DTD/svg11.dtd">
<svg version="1.1" id="Capa_1" xmlns="http://www.w3.org/2000/svg" xmlns:xlink="http://www.w3.org/1999/xlink" x="0px" y="0px"
	 width="84px" height="99px" viewBox="0 0 84 99" enable-background="new 0 0 84 99" xml:space="preserve">
<g>
	<g>
		<path fill="#486D84" d="M82.77,58.671h-7.59c0.039-0.049,0.08-0.097,0.119-0.146c6.076-7.601,9.072-15.451,8.664-22.703
			c-0.241-4.293-1.698-8.317-4.212-11.636c-2.401-3.168-5.702-5.633-9.548-7.125c-4.48-1.74-9.441-2.083-14.347-0.993
			c-4.951,1.1-9.72,3.669-13.856,7.454c-4.366-3.996-9.412-6.622-14.659-7.619c-5.181-0.984-10.335-0.384-14.905,1.737
			c-0.616,0.286-0.884,1.018-0.598,1.634s1.018,0.884,1.634,0.598c4.1-1.903,8.737-2.439,13.409-1.552
			C32,19.293,36.93,21.981,41.14,26.096c0.478,0.467,1.242,0.467,1.72,0c4.002-3.911,8.68-6.548,13.53-7.625
			c4.429-0.984,8.897-0.678,12.923,0.885c3.42,1.328,6.352,3.512,8.477,6.317c2.217,2.927,3.503,6.485,3.717,10.288
			c0.373,6.637-2.438,13.908-8.129,21.028c-0.45,0.562-0.918,1.123-1.401,1.683h-7.481l-6.965-25.112
			c-0.148-0.533-0.633-0.902-1.187-0.902c-0.553,0-1.038,0.369-1.186,0.902l-6.351,22.896l-5.715-10.967
			c-0.225-0.43-0.681-0.688-1.165-0.66c-0.484,0.029-0.906,0.339-1.078,0.793l-5.875,15.52l-6.138-20.651
			c-0.15-0.506-0.607-0.86-1.135-0.879c-0.528-0.018-1.009,0.3-1.196,0.794l-6.914,18.265h-7.566
			c-5.586-6.459-8.856-13.156-9.46-19.397c-0.651-6.722,1.849-12.881,6.858-16.897c0.53-0.425,0.616-1.2,0.19-1.73
			c-0.425-0.53-1.2-0.615-1.729-0.19c-5.669,4.545-8.501,11.491-7.769,19.055c0.603,6.224,3.6,12.805,8.705,19.16H1.23
			c-0.68,0-1.23,0.551-1.23,1.23c0,0.679,0.551,1.23,1.23,1.23h9.685c7.076,7.884,17.336,15.379,30.513,22.286
			c0.179,0.094,0.375,0.141,0.571,0.141s0.393-0.048,0.571-0.141c13.202-6.92,23.447-14.406,30.516-22.286h9.683
			c0.68,0,1.23-0.552,1.23-1.23C84,59.222,83.449,58.671,82.77,58.671z M42,80.938c-11.721-6.199-21.03-12.852-27.726-19.806h6.167
			l0,0c0.511,0,0.969-0.316,1.15-0.795l5.924-15.649l6.042,20.33c-0.023,0.279,0.05,0.562,0.214,0.799
			c0.479,0.693,1.583,0.711,2.085,0.036c0.161-0.216,0.245-0.477,0.244-0.74l6.076-16.051c0,0,5.728,10.99,5.729,10.993
			c0.044,0.085,0.043,0.217,0.081,0.312c0.205,0.501,0.7,0.765,1.227,0.765c0.717,0,1.297-0.64,1.225-1.354l5.903-21.287
			l6.029,21.739c0.147,0.533,0.633,0.901,1.187,0.901h6.168C63.043,68.081,53.746,74.725,42,80.938z"/>
	</g>
</g>
</svg>
