<?xml version="1.0" encoding="iso-8859-1"?>
<!-- Generator: Adobe Illustrator 19.0.0, SVG Export Plug-In . SVG Version: 6.00 Build 0)  -->
<svg version="1.1" id="Capa_1" xmlns="http://www.w3.org/2000/svg" xmlns:xlink="http://www.w3.org/1999/xlink" x="0px" y="0px"
	 viewBox="0 0 496 496" style="enable-background:new 0 0 496 496;" xml:space="preserve">
<rect x="24" y="16" style="fill:#ECECEC;" width="64" height="128"/>
<rect x="24" y="16" style="fill:#B6C1CE;" width="40" height="128"/>
<path style="fill:#ECECEC;" d="M364.856,72L364.856,72c-15.544,0-30.504,5.112-43.392,13.808C313.544,91.144,302.392,96,288,96
	s-25.544-4.856-33.464-10.192C241.648,77.112,226.688,72,211.144,72l0,0C169.64,72,136,105.64,136,147.144l0,0
	c0,50.048,15.264,98.896,43.744,140.048l0,0c18.68,26.984,32.328,57.12,40.288,88.96l8.56,34.232c2,8,9.184,13.608,17.432,13.608
	l0,0C255.952,424,264,415.952,264,406.032V304c0-13.256,10.744-24,24-24l0,0c13.256,0,24,10.744,24,24v102.032
	c0,9.92,8.048,17.968,17.968,17.968l0,0c8.248,0,15.432-5.608,17.432-13.608l8.56-34.232c7.96-31.84,21.608-61.976,40.288-88.96l0,0
	C424.736,246.04,440,197.192,440,147.144l0,0C440,105.64,406.36,72,364.856,72z"/>
<path style="fill:#B6C1CE;" d="M288,248c-57.04,0-108.704-18.56-146.28-48.592c6.808,31.304,19.6,61.168,38.032,87.784l0,0
	c18.68,26.984,32.328,57.12,40.288,88.96l8.56,34.232c2,8,9.184,13.608,17.432,13.608c9.92,0.008,17.968-8.04,17.968-17.96V304
	c0-13.256,10.744-24,24-24s24,10.744,24,24v102.032c0,9.92,8.048,17.968,17.968,17.968c8.248,0,15.432-5.608,17.432-13.608
	l8.56-34.232c7.96-31.84,21.608-61.976,40.288-88.96l0,0c18.424-26.616,31.224-56.48,38.032-87.784
	C396.704,229.44,345.04,248,288,248z"/>
<path style="fill:#ECECEC;" d="M216,232c0-14.896-10.224-27.304-24-30.872V200c0-17.672-14.328-32-32-32s-32,14.328-32,32v1.128
	c-13.776,3.568-24,15.976-24,30.872s10.224,27.296,24,30.872V264c0,17.672,14.328,32,32,32s32-14.328,32-32v-1.128
	C205.776,259.296,216,246.896,216,232z"/>
<path style="fill:#EFEFEF;" d="M464,168c0-17.672-14.328-32-32-32s-32,14.328-32,32c-13.256,0-24,10.744-24,24s10.744,24,24,24
	h1.128c3.568,13.776,15.976,24,30.872,24s27.296-10.224,30.872-24H464c13.256,0,24-10.744,24-24S477.256,168,464,168z"/>
<path style="fill:#FCD770;" d="M8,152V8h32v144l32,72v248c0,8.84-7.16,16-16,16l0,0c-8.84,0-16-7.16-16-16V224L8,152z"/>
<path d="M288,120c-16.816,0-33.024-4.944-46.888-14.296l-8.944,13.264C248.68,130.112,267.992,136,288,136
	c20.016,0,39.328-5.888,55.84-17.04l-8.952-13.264C321.024,115.056,304.816,120,288,120z"/>
<path d="M96,152V8H48V0H0v153.696l32,72V472c0,13.232,10.768,24,24,24s24-10.768,24-24V222.304L48.752,152H96z M48,136v-16h32v16H48
	z M80,88v16H48V88H80z M48,72V56h32v16H48z M80,24v16H48V24H80z M64,472c0,4.416-3.592,8-8,8s-8-3.584-8-8V222.304l-32-72V16h16
	v137.696l32,72V472z"/>
<path d="M471.28,160.912c-2.496-13.872-12.136-25.2-24.992-30.16C438.592,92.432,404.344,64,364.856,64
	c-16.6,0-33.152,5.248-47.864,15.168C308.312,85.032,298.552,88,288,88s-20.312-2.968-28.992-8.832
	C244.296,69.248,227.744,64,211.144,64C165.296,64,128,101.296,128,147.144c0,9.088,0.552,18.232,1.528,27.256
	c-4.864,5.776-8.064,12.88-9.04,20.736C106.12,201.208,96,215.44,96,232s10.12,30.792,24.496,36.864
	C122.928,288.608,139.608,304,160,304c6.592,0,12.72-1.752,18.208-4.592c15.576,24.256,27.08,50.704,34.072,78.68l8.56,34.232
	c2.888,11.592,13.256,19.68,25.192,19.68c14.32,0,25.968-11.648,25.968-25.968V304c0-8.824,7.176-16,16-16s16,7.176,16,16v102.032
	c0,14.32,11.648,25.968,25.968,25.968c11.936,0,22.304-8.088,25.192-19.672l8.56-34.232c7.752-31.016,20.912-60.072,39.112-86.352
	c9.6-13.872,17.744-28.744,24.4-44.224c1.584,0.192,3.136,0.48,4.768,0.48c16.56,0,30.792-10.12,36.864-24.496
	C484.192,221.144,496,207.984,496,192C496,176.864,485.416,164.232,471.28,160.912z M160,288c-13.232,0-24-10.768-24-24v-8
	c-13.232,0-24-10.768-24-24s10.768-24,24-24v-8c0-13.232,10.768-24,24-24s24,10.768,24,24v8c13.232,0,24,10.768,24,24
	s-10.768,24-24,24v8C184,277.232,173.232,288,160,288z M389.672,282.632c-19.296,27.872-33.248,58.688-41.48,91.584l-8.56,34.232
	c-1.104,4.448-5.08,7.552-9.664,7.552c-5.496,0-9.968-4.472-9.968-9.968V304c0-17.648-14.352-32-32-32s-32,14.352-32,32v102.032
	c0,5.496-4.472,9.968-9.968,9.968c-4.584,0-8.56-3.104-9.672-7.544l-8.56-34.232c-7.56-30.256-20.024-58.84-37.04-84.968
	c4.696-5.712,7.792-12.68,8.744-20.384C213.88,262.792,224,248.56,224,232s-10.12-30.792-24.496-36.864
	C197.072,175.392,180.392,160,160,160c-5.464,0-10.664,1.112-15.416,3.104c-0.352-5.32-0.584-10.648-0.584-15.96
	C144,110.12,174.12,80,211.144,80c13.4,0,26.856,4.296,38.92,12.44C261.44,100.112,274.2,104,288,104s26.56-3.888,37.944-11.56
	C338,84.296,351.456,80,364.856,80c29.928,0,56.12,20.224,64.376,48.28c-18.36,1.28-33.312,14.864-36.52,32.632
	C378.584,164.232,368,176.864,368,192c0,15.984,11.808,29.144,27.136,31.504c3.384,8.024,9.408,14.576,16.864,18.928
	C405.856,256.488,398.416,270.008,389.672,282.632z M464,208h-8c0,13.232-10.768,24-24,24s-24-10.768-24-24h-8
	c-8.824,0-16-7.176-16-16s7.176-16,16-16c4.544,0,8.896,1.944,11.92,5.336l11.928-10.672c-4-4.464-9.192-7.528-14.832-9.192
	C411.88,151.424,421.048,144,432,144c10.944,0,20.096,7.4,22.968,17.432c-4.504,1.328-8.736,3.528-12.304,6.72l10.664,11.92
	C456.272,177.448,460.056,176,464,176c8.824,0,16,7.176,16,16S472.824,208,464,208z"/>
<path d="M424,328c-13.232,0-24,10.768-24,24s10.768,24,24,24s24-10.768,24-24S437.232,328,424,328z M424,360c-4.408,0-8-3.584-8-8
	s3.592-8,8-8s8,3.584,8,8S428.408,360,424,360z"/>
<path d="M160,392c-13.232,0-24,10.768-24,24s10.768,24,24,24s24-10.768,24-24S173.232,392,160,392z M160,424c-4.408,0-8-3.584-8-8
	s3.592-8,8-8s8,3.584,8,8S164.408,424,160,424z"/>
<path d="M472,48c13.232,0,24-10.768,24-24S485.232,0,472,0s-24,10.768-24,24S458.768,48,472,48z M472,16c4.408,0,8,3.584,8,8
	s-3.592,8-8,8s-8-3.584-8-8S467.592,16,472,16z"/>
<rect x="144" y="32" width="16" height="16"/>
<rect x="296" width="16" height="16"/>
<rect x="128" y="224" width="16" height="16"/>
<rect x="176" y="224" width="16" height="16"/>
<rect x="480" y="280" width="16" height="16"/>
<rect x="120" y="328" width="16" height="16"/>
<rect x="424" y="200" width="16" height="16"/>
<g>
</g>
<g>
</g>
<g>
</g>
<g>
</g>
<g>
</g>
<g>
</g>
<g>
</g>
<g>
</g>
<g>
</g>
<g>
</g>
<g>
</g>
<g>
</g>
<g>
</g>
<g>
</g>
<g>
</g>
</svg>
