<?xml version="1.0" encoding="utf-8"?>
<!-- Generator: Adobe Illustrator 16.0.0, SVG Export Plug-In . SVG Version: 6.00 Build 0)  -->
<!DOCTYPE svg PUBLIC "-//W3C//DTD SVG 1.1//EN" "http://www.w3.org/Graphics/SVG/1.1/DTD/svg11.dtd">
<svg version="1.1" id="Capa_1" xmlns="http://www.w3.org/2000/svg" xmlns:xlink="http://www.w3.org/1999/xlink" x="0px" y="0px"
	 width="84px" height="99px" viewBox="0 0 84 99" enable-background="new 0 0 84 99" xml:space="preserve">
<g>
	<g>
		<path fill="#486D84" d="M69.898,30.865c-5.35,0-9.701,4.352-9.701,9.7s4.352,9.701,9.701,9.701c5.348,0,9.699-4.352,9.699-9.701
			S75.246,30.865,69.898,30.865z M69.898,47.804c-3.992,0-7.24-3.248-7.24-7.239s3.248-7.239,7.24-7.239
			c3.991,0,7.238,3.248,7.238,7.239S73.89,47.804,69.898,47.804z"/>
	</g>
</g>
<g>
	<g>
		<path fill="#486D84" d="M65.186,38.681c-0.68,0-1.23,0.551-1.23,1.23v0.853c0,0.68,0.551,1.23,1.23,1.23s1.23-0.551,1.23-1.23
			v-0.853C66.416,39.231,65.865,38.681,65.186,38.681z"/>
	</g>
</g>
<g>
	<g>
		<path fill="#486D84" d="M74.609,38.681c-0.68,0-1.23,0.551-1.23,1.23v0.853c0,0.68,0.551,1.23,1.23,1.23s1.23-0.551,1.23-1.23
			v-0.853C75.84,39.231,75.289,38.681,74.609,38.681z"/>
	</g>
</g>
<g>
	<g>
		<path fill="#486D84" d="M71.871,39.778c-0.512-0.447-1.289-0.395-1.736,0.117c-0.02,0.022-0.094,0.094-0.236,0.094
			c-0.145,0-0.218-0.072-0.236-0.094c-0.448-0.512-1.226-0.564-1.736-0.117c-0.512,0.447-0.564,1.225-0.117,1.736
			c0.52,0.594,1.281,0.935,2.09,0.935c0.808,0,1.569-0.341,2.089-0.935C72.435,41.002,72.383,40.226,71.871,39.778z"/>
	</g>
</g>
<g>
	<g>
		<path fill="#486D84" d="M69.898,26.463c-2.359,0-4.693,0.595-6.753,1.72c-0.597,0.326-0.815,1.074-0.489,1.67
			c0.325,0.596,1.072,0.816,1.67,0.49c1.697-0.928,3.625-1.418,5.572-1.418c6.418,0,11.641,5.222,11.641,11.641
			c0,5.697-4.115,10.449-9.527,11.445c-1.369,0.253-2.836,0.256-4.227,0c-5.414-0.996-9.528-5.748-9.528-11.445
			c0-2.707,0.95-5.344,2.676-7.425c0.434-0.523,0.361-1.299-0.161-1.733c-0.523-0.434-1.299-0.361-1.733,0.162
			c-2.091,2.521-3.242,5.716-3.242,8.996c0,6.478,4.392,11.947,10.353,13.592v16.994c0,4.859-3.953,8.812-8.812,8.812h-20.71
			c-4.859,0-8.813-3.953-8.813-8.812V60.328c1.948-1.047,3.411-2.883,3.96-5.078l11.63-8.188c2.959-2.083,4.725-5.487,4.725-9.105
			V26.172c0-4.018-2.175-7.736-5.676-9.706l-3.627-2.041v-0.224c0-1.469-1.195-2.664-2.664-2.664h-2.352
			c-1.932,0-3.503,1.571-3.503,3.503v5.209c0,1.932,1.571,3.503,3.503,3.503h2.352c0.54,0,1.041-0.163,1.461-0.439l0.744,0.418
			c0.88,0.495,1.426,1.43,1.426,2.439v11.785c0,0.909-0.444,1.765-1.188,2.288l-9.668,6.808c-1.346-1.048-3.036-1.674-4.871-1.674
			c-1.834,0-3.523,0.626-4.87,1.674l-9.669-6.808c-0.743-0.523-1.188-1.379-1.188-2.288V26.172c0-1.01,0.547-1.944,1.427-2.439
			l0.743-0.418c0.42,0.276,0.921,0.439,1.461,0.439h2.352c1.931,0,3.502-1.571,3.502-3.503v-5.209c0-1.932-1.571-3.503-3.502-3.503
			h-2.352c-1.469,0-2.664,1.195-2.664,2.664v0.224l-3.628,2.041C2.175,18.436,0,22.154,0,26.172v11.785
			c0,3.618,1.766,7.022,4.725,9.105l11.63,8.188c0.549,2.195,2.012,4.031,3.96,5.078v10.823c0,8.993,7.316,16.311,16.31,16.311
			h20.711c8.994,0,16.311-7.317,16.311-16.311V54.157C79.608,52.511,84,47.043,84,40.565C84,32.789,77.674,26.463,69.898,26.463z
			 M36.362,21.089c0,0.025-0.006,0.048-0.014,0.07c-0.002,0.005-0.004,0.011-0.006,0.016c-0.033,0.069-0.102,0.117-0.183,0.117
			h-2.352c-0.574,0-1.042-0.467-1.042-1.042v-5.209c0-0.574,0.467-1.042,1.042-1.042h2.352c0.112,0,0.203,0.091,0.203,0.203V21.089z
			 M40.02,42.258c1.397-0.984,2.231-2.592,2.231-4.301V26.172c0-1.897-1.027-3.654-2.681-4.584l-0.748-0.421
			c0-0.026,0.001-0.052,0.001-0.078v-3.84l2.421,1.362c2.728,1.534,4.421,4.431,4.421,7.561v11.785c0,2.818-1.375,5.47-3.681,7.093
			l-10.063,7.085c-0.079-0.528-0.215-1.047-0.398-1.548c-0.223-0.607-0.517-1.188-0.884-1.726L40.02,42.258z M11.765,15.145v-0.943
			c0-0.112,0.091-0.203,0.203-0.203h2.352c0.574,0,1.042,0.468,1.042,1.042v5.209c0,0.575-0.468,1.042-1.042,1.042h-2.352
			c-0.081,0-0.15-0.048-0.182-0.117c-0.002-0.005-0.004-0.011-0.007-0.016c-0.008-0.022-0.014-0.045-0.014-0.07V15.145z
			 M16.604,50.588c-0.003,0.006-0.005,0.014-0.008,0.021c-0.179,0.494-0.312,1.006-0.39,1.526L6.142,45.05
			c-2.305-1.623-3.681-4.274-3.681-7.093V26.172c0-3.129,1.694-6.026,4.422-7.561l2.421-1.362v3.84c0,0.026,0,0.052,0.001,0.078
			l-0.748,0.421c-1.654,0.93-2.681,2.687-2.681,4.584v11.785c0,1.709,0.834,3.316,2.232,4.3l9.38,6.604
			C17.121,49.4,16.826,49.98,16.604,50.588z M18.666,54.293c-0.122-0.681-0.115-1.393,0.024-2.071c0-0.002,0.001-0.004,0.001-0.007
			c0.514-2.494,2.728-4.375,5.372-4.375c2.644,0,4.857,1.881,5.372,4.375c0,0.003,0.001,0.005,0.001,0.009
			c0.146,0.679,0.146,1.39,0.024,2.072c-0.424,2.361-2.416,4.145-4.769,4.471c-0.209,0.028-0.417,0.044-0.629,0.044
			C21.446,58.81,19.125,56.871,18.666,54.293z M71.186,71.151c0,7.636-6.213,13.85-13.85,13.85h-20.71
			c-7.637,0-13.85-6.213-13.85-13.85v-9.985c0.015,0.003,0.031,0.004,0.046,0.008c0.413,0.066,0.85,0.1,1.273,0.096
			c0.399-0.002,0.811-0.033,1.209-0.096c0.016-0.003,0.031-0.005,0.046-0.008v9.985c0,6.216,5.058,11.273,11.274,11.273h20.71
			c6.217,0,11.273-5.058,11.273-11.273V54.607c0.003,0.02,0.586,0.041,0.609,0.043c0.453,0.021,0.906,0.021,1.357,0
			c0.203-0.01,0.407-0.023,0.609-0.043V71.151z"/>
	</g>
</g>
</svg>
