<svg height="512pt" viewBox="0 0 512 512" width="512pt" xmlns="http://www.w3.org/2000/svg"><path d="m435 164.03125v310.46875h-358v-310.46875l179-119.53125zm0 0" fill="#b0693c"/><g fill="#9c5d35"><path d="m405 143.757812v330.742188h30v-310.46875zm0 0"/><path d="m77 414.5h358v60h-358zm0 0"/><path d="m77 294.5h358v60h-358zm0 0"/><path d="m77 174.5h358v60h-358zm0 0"/></g><path d="m405 414.5h30v60h-30zm0 0" fill="#8c542f"/><path d="m405 294.5h30v60h-30zm0 0" fill="#8c542f"/><path d="m405 174.5h30v60h-30zm0 0" fill="#8c542f"/><path d="m489.5 504.5h-467c-8.285156 0-15-6.714844-15-15s6.714844-15 15-15h467c8.285156 0 15 6.714844 15 15s-6.714844 15-15 15zm0 0" fill="#d9a990"/><path d="m489.5 474.5h-30c8.285156 0 15 6.714844 15 15s-6.714844 15-15 15h30c8.285156 0 15-6.714844 15-15s-6.714844-15-15-15zm0 0" fill="#c7957b"/><path d="m351 474.5h-190v-144.367188c0-52.464843 42.53125-95 95-95s95 42.535157 95 95zm0 0" fill="#633327"/><path d="m256 235.136719c-5.105469 0-10.113281.40625-15 1.183593 45.339844 7.191407 80 46.453126 80 93.816407v144.363281h30v-144.367188c0-52.464843-42.53125-94.996093-95-94.996093zm0 0" fill="#572d22"/><path d="m360.828125 114.5h-209.65625l89.847656-60h29.960938zm0 0" fill="#9c5d35"/><path d="m286 170c0 16.566406-13.429688 30-30 30s-30-13.433594-30-30c0-16.570312 13.429688-30 30-30s30 13.429688 30 30zm0 0" fill="#89ceea"/><path d="m504.5 175.589844v59.910156l-242.851562-166.332031c-3.40625-2.332031-7.890626-2.332031-11.296876 0l-242.851562 166.332031v-59.910156l242.851562-166.339844c3.40625-2.332031 7.890626-2.332031 11.296876 0zm0 0" fill="#ffd659"/><path d="m504.5 175.589844v59.910156l-30-20.550781-212.851562-145.78125c-3.410157-2.328125-7.886719-2.328125-11.296876 0l-242.851562 166.332031v-29.570312l242.851562-166.328126c3.410157-2.332031 7.886719-2.332031 11.296876 0l194.070312 132.914063c7.964844 5.453125 18.78125-.246094 18.78125-9.898437v-7.578126zm0 0" fill="#ffbd54"/><path d="m186 474.5h-160l8.597656-60h142.804688zm0 0" fill="#ff573d"/><path d="m177.402344 414.5h-30.664063l8.59375 60h30.667969zm0 0" fill="#e64028"/><path d="m442.5 202.113281 57.761719 39.5625c1.273437.871094 2.753906 1.3125 4.238281 1.3125 1.199219 0 2.398438-.289062 3.496094-.867187 2.464844-1.296875 4.003906-3.851563 4.003906-6.632813v-59.914062c0-2.476563-1.21875-4.792969-3.261719-6.191407l-121.511719-83.230468c-3.417968-2.339844-8.085937-1.46875-10.425781 1.949218-2.339843 3.417969-1.46875 8.085938 1.949219 10.425782l118.25 81v41.730468l-231.113281-158.296874c-5.914063-4.050782-13.859375-4.050782-19.773438 0l-231.113281 158.296874v-41.730468l239.589844-164.113282c.855468-.585937 1.964844-.585937 2.820312 0l94.945313 65.035157c3.417969 2.339843 8.085937 1.46875 10.425781-1.949219s1.46875-8.085938-1.949219-10.425781l-94.945312-65.035157c-5.914063-4.050781-13.859375-4.050781-19.773438 0l-242.851562 166.347657c-2.042969 1.398437-3.261719 3.710937-3.261719 6.1875v59.914062c0 2.78125 1.539062 5.335938 4.003906 6.632813 2.460938 1.296875 5.4375 1.125 7.734375-.445313l57.761719-39.5625v204.882813h-34.902344c-3.730468 0-6.894531 2.742187-7.425781 6.433594l-7.703125 53.777343c-10.976562 1.488281-19.46875 10.914063-19.46875 22.292969 0 12.40625 10.09375 22.5 22.5 22.5h467c12.40625 0 22.5-10.09375 22.5-22.5 0-12.410156-10.09375-22.503906-22.5-22.503906h-47zm-91.5 190.046875c-4.140625 0-7.5 3.359375-7.5 7.5v67.335938h-150.996094l-7.675781-53.566406c-.53125-3.691407-3.695313-6.433594-7.425781-6.433594h-8.902344v-76.863282c0-48.25 39.253906-87.503906 87.5-87.503906 23.367188 0 45.34375 9.101563 61.875 25.621094 8.28125 8.289062 14.695312 17.941406 19.035156 28.453125.09375.300781.210938.589844.339844.875 4.089844 10.21875 6.25 21.21875 6.25 32.554687v37.695313c0 4.140625 3.359375 7.5 7.5 7.5s7.5-3.359375 7.5-7.5v-5.835937h69v45.003906h-69v-7.335938c0-4.140625-3.359375-7.5-7.5-7.5zm-266.5 14.835938v-45.003906h69v45.003906zm69-76.863282v16.859376h-69v-45.003907h72.929688c-2.558594 8.949219-3.929688 18.386719-3.929688 28.144531zm274-43.144531h-78.46875c-5-10.769531-11.902344-20.695312-20.550781-29.34375-6.105469-6.105469-12.851563-11.34375-20.078125-15.65625h119.097656zm0 60.003907h-69v-16.863282c0-9.652344-1.332031-19.101562-3.898438-28.140625h72.898438zm-134.132812-180.007813c-1.53125-19.28125-17.699219-34.503906-37.367188-34.503906s-35.835938 15.222656-37.367188 34.503906h-97.847656l65.703125-45.003906h139.023438l65.703125 45.003906zm-59.867188 3c0-12.40625 10.09375-22.5 22.5-22.5s22.5 10.09375 22.5 22.5-10.09375 22.5-22.5 22.5-22.5-10.09375-22.5-22.5zm21.089844-94.648437c.855468-.585938 1.964844-.585938 2.820312 0l46.199219 31.644531h-95.21875zm-155.703125 106.648437h121.59375c5.015625 14.808594 19.039062 25.5 35.519531 25.5s30.503906-10.691406 35.519531-25.5h121.59375l14.386719 9.855469v35.148437h-267.5c-4.140625 0-7.5 3.355469-7.5 7.5 0 4.140625 3.359375 7.5 7.5 7.5h43.734375c-17.6875 10.53125-31.953125 26.226563-40.699219 45h-78.535156v-45h44c4.140625 0 7.5-3.359375 7.5-7.5 0-4.144531-3.359375-7.5-7.5-7.5h-44v-35.148437zm-57.789063 240.011719h129.804688l6.445312 45h-142.695312zm455.902344 67.503906c0 4.132812-3.363281 7.5-7.5 7.5h-467c-4.136719 0-7.5-3.367188-7.5-7.5 0-4.136719 3.363281-7.5 7.5-7.5h467c4.136719 0 7.5 3.363281 7.5 7.5zm-138.5-22.503906v-45h69v45zm0 0"/></svg>