<svg height="511pt" viewBox="-120 1 511 511.999" width="511pt" xmlns="http://www.w3.org/2000/svg"><path d="m207.617188 136.464844c-13.078126-8.925782-20.902344-23.734375-20.902344-39.570313v-17.050781c-10.636719 0-89.730469 0-100.367188 0v17.050781c0 15.835938-7.824218 30.644531-20.902344 39.570313-35.894531 24.492187-57.363281 65.136718-57.363281 108.585937v236.949219c0 12.332031 9.996094 22.332031 22.328125 22.332031h212.242188c12.332031 0 22.332031-10 22.332031-22.332031v-236.949219c-.003906-43.449219-21.472656-84.09375-57.367187-108.585937zm0 0" fill="#e4e3e1"/><path d="m27.949219 482v-236.949219c0-43.449219 21.472656-84.09375 57.363281-108.585937 13.082031-8.925782 20.90625-23.734375 20.90625-39.570313v-17.050781c-9.660156 0-17.097656 0-19.871094 0v17.050781c0 15.835938-7.824218 30.644531-20.90625 39.570313-35.890625 24.492187-57.363281 65.136718-57.363281 108.585937v236.949219c0 12.332031 10 22.332031 22.332031 22.332031h19.871094c-12.332031 0-22.332031-10-22.332031-22.332031zm0 0" fill="#d1d0cf"/><path d="m163.003906 48.539062v-32.34375c0-4.894531-3.96875-8.863281-8.863281-8.863281h-35.21875c-4.898437 0-8.863281 3.96875-8.863281 8.863281v32.34375zm0 0" fill="#af7561"/><path d="m110.058594 79.84375v31.652344c0 4.894531 3.964844 8.863281 8.859375 8.863281h35.222656c4.894531 0 8.863281-3.96875 8.863281-8.863281v-31.652344zm0 0" fill="#af7561"/><path d="m138.921875 7.332031h-20.003906c-4.894531 0-8.859375 3.96875-8.859375 8.863281v32.34375h20v-32.34375c0-4.894531 3.96875-8.863281 8.863281-8.863281zm0 0" fill="#915039"/><path d="m130.058594 111.496094v-31.652344h-20v31.652344c0 4.894531 3.964844 8.863281 8.859375 8.863281h20.003906c-4.894531 0-8.863281-3.96875-8.863281-8.863281zm0 0" fill="#915039"/><path d="m242.652344 504.332031c12.332031 0 22.328125-10 22.328125-22.332031v-236.949219c0-15.398437-2.710938-30.441406-7.789063-44.542969-8.371094 1.476563-16.601562-1.929687-21.53125-8.546874-.902344-1.207032-2.671875-1.207032-3.574218 0-8.828126 11.851562-26.535157 11.847656-35.363282 0-.898437-1.207032-2.671875-1.207032-3.574218 0-8.828126 11.851562-26.535157 11.847656-35.363282 0-.898437-1.207032-2.671875-1.207032-3.574218 0-8.828126 11.851562-26.535157 11.847656-35.363282 0-.898437-1.207032-2.671875-1.207032-3.570312 0-8.832032 11.851562-26.539063 11.847656-35.367188 0-.898437-1.207032-2.671875-1.207032-3.570312 0-8.832032 11.851562-26.539063 11.847656-35.367188 0-.898437-1.207032-2.671875-1.207032-3.570312 0-4.929688 6.617187-13.160156 10.023437-21.53125 8.546874-5.082032 14.101563-7.792969 29.144532-7.792969 44.542969v236.949219c0 12.332031 10 22.332031 22.332031 22.332031zm0 0" fill="#ffc964"/><path d="m27.949219 482v-236.949219c0-18.878906 4.058593-37.230469 11.589843-53.957031-.777343-.125-1.609374.15625-2.140624.867188-4.929688 6.617187-13.160157 10.023437-21.527344 8.546874-5.148438 14.277344-7.792969 29.421876-7.792969 44.542969v236.949219c0 12.332031 10 22.332031 22.332031 22.332031h19.871094c-12.332031 0-22.332031-10-22.332031-22.332031zm0 0" fill="#f3a334"/><path d="m8.078125 245.050781h256.902344v215.082031h-256.902344zm0 0" fill="#f45858"/><path d="m8.078125 245.050781h19.871094v215.082031h-19.871094zm0 0" fill="#e84949"/><path d="m211.574219 277.085938h-150.089844c-5.847656 0-10.585937 4.742187-10.585937 10.589843v129.832031c0 5.847657 4.738281 10.589844 10.585937 10.589844h150.089844c5.847656 0 10.589843-4.742187 10.589843-10.589844v-129.832031c0-5.847656-4.742187-10.589843-10.589843-10.589843zm0 0" fill="#e4e3e1"/><path d="m70.769531 417.507812v-129.832031c0-5.847656 4.738281-10.589843 10.585938-10.589843h-19.871094c-5.847656 0-10.585937 4.742187-10.585937 10.589843v129.832031c0 5.847657 4.738281 10.589844 10.585937 10.589844h19.871094c-5.847657 0-10.585938-4.742187-10.585938-10.589844zm0 0" fill="#d1d0cf"/><path d="m190.398438 48.011719h-107.734376c-8.609374 0-15.652343 7.1875-15.652343 15.972656 0 8.78125 7.042969 15.96875 15.652343 15.96875h107.730469c8.609375 0 15.65625-7.1875 15.65625-15.96875 0-8.785156-7.042969-15.972656-15.652343-15.972656zm0 0" fill="#d1d0cf"/><path d="m190.398438 59.878906h-107.734376c-4.890624 0-9.269531-2.320312-12.144531-5.933594-2.191406 2.75-3.507812 6.242188-3.507812 10.039063 0 8.78125 7.042969 15.96875 15.652343 15.96875h107.734376c8.609374 0 15.652343-7.1875 15.652343-15.96875 0-3.796875-1.320312-7.289063-3.507812-10.039063-2.875 3.613282-7.257813 5.933594-12.144531 5.933594zm0 0" fill="#afafaf"/><path d="m102.707031 342.839844c0 6.410156-5.195312 11.609375-11.609375 11.609375-6.414062 0-11.613281-5.199219-11.613281-11.609375 0-6.414063 5.199219-11.613282 11.613281-11.613282 6.414063 0 11.609375 5.199219 11.609375 11.613282zm0 0" fill="#a0634a"/><path d="m193.574219 342.839844c0 6.410156-5.199219 11.609375-11.609375 11.609375-6.414063 0-11.613282-5.199219-11.613282-11.609375 0-6.414063 5.199219-11.613282 11.613282-11.613282 6.410156 0 11.609375 5.199219 11.609375 11.613282zm0 0" fill="#a0634a"/><path d="m140.839844 341.988281c-1.402344-.304687-2.84375-.457031-4.308594-.449219-1.46875-.007812-2.910156.140626-4.3125.449219-26.050781 5.167969-39.308594 46.398438-18.695312 58.300781 5.515624 3.179688 12.210937 3.148438 18.675781.53125 2.769531-1.125 5.890625-1.125 8.660156 0 6.464844 2.617188 13.160156 2.648438 18.675781-.53125 20.554688-11.871093 7.40625-53.125-18.695312-58.300781zm0 0" fill="#a0634a"/><path d="m170.480469 316.53125c0 7.777344-6.304688 14.082031-14.078125 14.082031-7.777344 0-14.082032-6.304687-14.082032-14.082031s6.304688-14.078125 14.082032-14.078125c7.773437 0 14.078125 6.300781 14.078125 14.078125zm0 0" fill="#a0634a"/><path d="m130.738281 316.53125c0 7.777344-6.304687 14.082031-14.078125 14.082031-7.777344 0-14.082031-6.304687-14.082031-14.082031s6.304687-14.078125 14.082031-14.078125c7.773438 0 14.078125 6.300781 14.078125 14.078125zm0 0" fill="#a0634a"/><g fill="#915039"><path d="m99.355469 342.839844c0-2.195313.621093-4.238282 1.675781-5.988282-2.03125-3.367187-5.714844-5.625-9.933594-5.625-6.414062 0-11.613281 5.199219-11.613281 11.613282 0 6.410156 5.199219 11.609375 11.613281 11.609375 4.21875 0 7.902344-2.257813 9.933594-5.625-1.054688-1.75-1.675781-3.792969-1.675781-5.984375zm0 0"/><path d="m190.222656 342.839844c0-2.195313.621094-4.238282 1.675782-5.988282-2.03125-3.367187-5.714844-5.625-9.933594-5.625-6.414063 0-11.613282 5.199219-11.613282 11.613282 0 6.410156 5.199219 11.609375 11.613282 11.609375 4.21875 0 7.902344-2.257813 9.933594-5.625-1.054688-1.75-1.675782-3.792969-1.675782-5.984375zm0 0"/><path d="m133.398438 400.285156c-18.464844-10.660156-10.117188-46.34375 13.066406-56.496094-1.863282-.816406-3.746094-1.429687-5.625-1.800781-1.402344-.308593-2.84375-.457031-4.308594-.449219-1.464844-.007812-2.90625.140626-4.3125.449219-26.050781 5.164063-39.308594 46.394531-18.691406 58.296875 5.511718 3.183594 12.207031 3.152344 18.671875.53125.449219-.179687.902343-.320312 1.363281-.441406-.054688-.03125-.109375-.058594-.164062-.089844zm0 0"/><path d="m162.191406 316.53125c0-3.898438 1.585938-7.425781 4.144532-9.976562-2.542969-2.535157-6.054688-4.101563-9.933594-4.101563-7.777344 0-14.082032 6.300781-14.082032 14.078125s6.304688 14.082031 14.082032 14.082031c3.878906 0 7.390625-1.570312 9.933594-4.105469-2.558594-2.550781-4.144532-6.078124-4.144532-9.976562zm0 0"/><path d="m122.449219 316.53125c0-3.898438 1.585937-7.425781 4.144531-9.976562-2.546875-2.535157-6.058594-4.101563-9.933594-4.101563-7.777344 0-14.082031 6.300781-14.082031 14.078125s6.304687 14.082031 14.082031 14.082031c3.875 0 7.386719-1.570312 9.933594-4.105469-2.558594-2.550781-4.144531-6.078124-4.144531-9.976562zm0 0"/></g><path d="m61.40625 269.753906c-9.976562 0-18.089844 8.117188-18.089844 18.089844v129.832031c0 9.976563 8.113282 18.089844 18.089844 18.089844h150.089844c9.976562 0 18.089844-8.113281 18.089844-18.089844v-129.832031c0-9.972656-8.113282-18.089844-18.089844-18.089844zm153.179688 18.089844v129.832031c0 1.703125-1.386719 3.089844-3.089844 3.089844h-150.089844c-1.703125 0-3.089844-1.386719-3.089844-3.089844v-129.832031c0-1.703125 1.386719-3.085938 3.089844-3.085938h150.089844c1.703125 0 3.089844 1.382813 3.089844 3.085938zm0 0"/><path d="m176.339844 324.722656c5.71875-14.21875-4.84375-29.605468-20.019532-29.605468-8.914062 0-16.582031 5.4375-19.871093 13.167968-3.285157-7.730468-10.953125-13.167968-19.871094-13.167968-15.203125 0-25.722656 15.414062-20.019531 29.605468-12.300782-3.738281-24.652344 5.535156-24.652344 18.285156 0 10.539063 8.570312 19.109376 19.109375 19.109376 3.679687 0 7.105469-1.058594 10.023437-2.867188-15.621093 31.09375 5.890626 60.042969 33.898438 48.6875.960938-.390625 2.0625-.390625 3.023438 0 28.066406 11.371094 49.484374-17.667969 33.898437-48.6875 12.75 7.894531 29.136719-1.375 29.136719-16.242188 0-12.742187-12.34375-22.027343-24.65625-18.285156zm-85.320313 22.394532c-2.269531 0-4.113281-1.84375-4.113281-4.109376 0-2.265624 1.84375-4.109374 4.113281-4.109374 2.265625 0 4.109375 1.84375 4.109375 4.109374 0 2.265626-1.84375 4.109376-4.109375 4.109376zm65.300781-36.996094c3.628907 0 6.582032 2.953125 6.582032 6.582031 0 3.625-2.953125 6.578125-6.582032 6.578125-3.625 0-6.578124-2.953125-6.578124-6.578125 0-3.628906 2.953124-6.582031 6.578124-6.582031zm-19.871093 14.996094c2.0625 4.84375 5.855469 8.765624 10.585937 11.035156-7.441406-2.667969-14.113281-2.527344-21.171875 0 4.734375-2.269532 8.527344-6.191406 10.585938-11.035156zm-19.867188-14.996094c3.625 0 6.578125 2.953125 6.578125 6.582031 0 3.625-2.953125 6.578125-6.578125 6.578125-3.628906 0-6.582031-2.953125-6.582031-6.578125 0-3.628906 2.953125-6.582031 6.582031-6.582031zm-7.460937 26.804687c4.699218 1.738281 9.550781 1.757813 14.011718.332031-4.84375 2.1875-9.417968 5.46875-13.398437 9.621094.671875-3.261718.5-6.644531-.613281-9.953125zm34.476562 57.109375c-4.605468-1.867187-9.683594-1.867187-14.292968 0-2.628907 1.066406-7.695313 2.472656-12.105469-.074218-7.382813-4.261719-8.792969-17.660157-1.738281-29.878907 4.734374-8.203125 14.109374-16.355469 23.84375-14.566406 6.773437 1.34375 13.726562 6.925781 18.136718 14.566406 9.957032 17.25 3.066406 36.804688-13.84375 29.953125zm19.570313-47.15625c-3.980469-4.152344-8.554688-7.433594-13.402344-9.621094 4.46875 1.425782 9.320313 1.40625 14.015625-.332031-1.113281 3.304688-1.285156 6.691407-.613281 9.953125zm18.714843.238282c-2.265624 0-4.109374-1.84375-4.109374-4.109376 0-2.265624 1.84375-4.109374 4.109374-4.109374 2.269532 0 4.113282 1.84375 4.113282 4.109374 0 2.265626-1.84375 4.109376-4.113282 4.109376zm0 0"/><path d="m264.902344 344.617188c4.140625 0 7.5-3.355469 7.5-7.5v-91.894532c0-44.941406-21.902344-88.351562-60.636719-114.785156-11.039063-7.53125-17.632813-20.007812-17.632813-33.375v-9.871094c10.957032-1.824218 19.339844-11.367187 19.339844-22.832031 0-12.769531-10.390625-23.152344-23.15625-23.152344h-19.894531v-24.84375c.003906-9.023437-7.335937-16.363281-16.359375-16.363281h-35.222656c-9.023438 0-16.363282 7.339844-16.363282 16.363281v24.84375h-19.890624c-12.769532 0-23.15625 10.386719-23.15625 23.152344 0 11.464844 8.382812 21.007813 19.335937 22.832031v9.871094c0 13.363281-6.589844 25.84375-17.628906 33.375-37.628907 25.675781-60.636719 68.441406-60.636719 114.78125v236.949219c0 16.449219 13.382812 29.832031 29.828125 29.832031h88.621094c4.144531 0 7.5-3.359375 7.5-7.5 0-4.144531-3.355469-7.5-7.5-7.5h-88.617188c-8.179687 0-14.832031-6.65625-14.832031-14.832031v-14.367188h241.902344v14.367188c0 8.175781-6.652344 14.832031-14.828125 14.832031h-88.621094c-4.144531 0-7.5 3.355469-7.5 7.5 0 4.140625 3.355469 7.5 7.5 7.5h88.621094c16.445312 0 29.828125-13.382812 29.828125-29.832031v-110.046875c0-4.144532-3.355469-7.5-7.5-7.5-4.144532 0-7.5 3.355468-7.5 7.5v80.679687h-241.902344v-200.078125h241.902344v84.394532c0 4.144531 3.355468 7.5 7.5 7.5zm-147.421875-328.253907c0-.75.609375-1.363281 1.359375-1.363281h35.222656c.75 0 1.359375.613281 1.359375 1.363281v24.84375h-37.941406zm-43.050781 47.996094c0-4.496094 3.660156-8.152344 8.15625-8.152344h107.730468c4.496094 0 8.152344 3.65625 8.152344 8.152344s-3.65625 8.152344-8.152344 8.152344c-9.785156 0-89.929687 0-107.730468 0-4.496094 0-8.15625-3.65625-8.15625-8.152344zm80.996093 23.152344v24.152343c0 .75-.613281 1.363282-1.363281 1.363282h-35.222656c-.75 0-1.359375-.613282-1.359375-1.363282v-24.152343zm-85.835937 55.316406c15.140625-10.328125 24.179687-27.4375 24.179687-45.765625v-9.550781h8.707031v24.152343c0 9.023438 7.339844 16.363282 16.363282 16.363282h35.222656c9.019531 0 16.359375-7.339844 16.359375-16.363282v-24.152343h8.710937c0 8.957031-2.554687 37.074219 24.179688 55.316406 18.046875 12.316406 32.21875 28.941406 41.519531 47.988281-1.214843-.867187-2.3125-1.925781-3.238281-3.167968-1.832031-2.460938-4.746094-3.925782-7.800781-3.925782-3.003907 0-5.941407 1.429688-7.796875 3.925782-5.835938 7.828124-17.5 7.832031-23.335938 0-1.832031-2.457032-4.75-3.925782-7.804687-3.925782-3.050781 0-5.96875 1.46875-7.796875 3.925782-5.835938 7.824218-17.5 7.832031-23.335938 0-3.890625-5.222657-11.707031-5.230469-15.605468 0-5.832032 7.828124-17.5 7.828124-23.335938 0-3.9375-5.289063-11.742188-5.175782-15.601562 0-5.828126 7.828124-17.5 7.832031-23.335938 0-3.886719-5.21875-11.703125-5.230469-15.601562 0-2.777344 3.730468-7.03125 5.867187-11.667969 5.867187s-8.890625-2.140625-11.667969-5.867187c-3.890625-5.226563-11.703125-5.226563-15.601562 0-.925782 1.242187-2.023438 2.300781-3.238282 3.167968 9.304688-19.046875 23.476563-35.671875 41.523438-47.988281zm-53.839844 94.890625c.589844-9.785156 2.261719-19.371094 5.328125-29.230469 6.667969-.3125 13.007813-2.867187 18.023437-7.28125 11.019532 9.714844 27.835938 9.796875 38.941407.003907 11.050781 9.742187 27.863281 9.765624 38.941406 0 11.046875 9.742187 27.863281 9.761718 38.933594 0 11.015625 9.710937 27.839843 9.785156 38.941406 0 11.070313 9.761718 27.886719 9.746093 38.941406-.003907 5.015625 4.414063 11.355469 6.972657 18.023438 7.28125 3.019531 9.710938 4.722656 19.285157 5.328125 29.230469zm0 0"/></svg>