<svg height="512pt" viewBox="0 0 512 512" width="512pt" xmlns="http://www.w3.org/2000/svg"><path d="m260.019531 37.5h-88c-8.285156 0-15-6.714844-15-15s6.714844-15 15-15h88c8.285157 0 15 6.714844 15 15s-6.714843 15-15 15zm0 0" fill="#716680"/><path d="m181.019531 339h70v30h-70zm0 0" fill="#716680"/><path d="m176.019531 37.5h80v41.5h-80zm0 0" fill="#d6cfc4"/><path d="m226.019531 37.5h30v41.5h-30zm0 0" fill="#c4beb4"/><path d="m452.011719 201.007812v213.992188h-60.007813v-211.992188c0-19.886718-16.121094-36.003906-36.007812-36.003906h-59.984375v-60.003906h61.984375c51.921875 0 94.015625 42.089844 94.015625 94.007812zm0 0" fill="#716680"/><path d="m357.996094 107h-30c51.921875 0 94.015625 42.089844 94.015625 94.007812v213.992188h30v-213.992188c0-51.917968-42.09375-94.007812-94.015625-94.007812zm0 0" fill="#635870"/><path d="m366.5 504.5h-221c-32.859375 0-59.5-26.640625-59.5-59.5h340c0 32.859375-26.640625 59.5-59.5 59.5zm0 0" fill="#716680"/><path d="m396 445c0 32.859375-26.640625 59.5-59.5 59.5h30c32.859375 0 59.5-26.640625 59.5-59.5zm0 0" fill="#635870"/><path d="m276.019531 339h-120c-11.046875 0-20-8.953125-20-20v-220c0-11.046875 8.953125-20 20-20h120c11.046875 0 20 8.953125 20 20v220c0 11.046875-8.953125 20-20 20zm0 0" fill="#e8e1d5"/><path d="m276.019531 79h-30.007812c11.042969 0 20 8.953125 20 20v220c0 11.046875-8.957031 20-20 20h30.007812c11.046875 0 20-8.953125 20-20v-220c0-11.046875-8.953125-20-20-20zm0 0" fill="#d6cfc4"/><path d="m336.011719 136.535156c0 22.089844-17.910157 40-40 40-22.09375 0-40-17.910156-40-40s17.90625-40 40-40c22.089843 0 40 17.910156 40 40zm0 0" fill="#ffbd54"/><path d="m311.011719 136.535156c0 8.285156-6.71875 15-15 15-8.285157 0-15-6.714844-15-15s6.714843-15 15-15c8.28125 0 15 6.714844 15 15zm0 0" fill="#ff573d"/><path d="m489.5 445h-467c-8.285156 0-15-6.714844-15-15s6.714844-15 15-15h467c8.285156 0 15 6.714844 15 15s-6.714844 15-15 15zm0 0" fill="#e8e1d5"/><path d="m489.5 415h-30c8.285156 0 15 6.714844 15 15s-6.714844 15-15 15h30c8.285156 0 15-6.714844 15-15s-6.714844-15-15-15zm0 0" fill="#d6cfc4"/><path d="m296.011719 159.035156c12.40625 0 22.5-10.09375 22.5-22.5s-10.097657-22.5-22.5-22.5c-12.40625 0-22.5 10.09375-22.5 22.5s10.089843 22.5 22.5 22.5zm0-30c4.132812 0 7.5 3.363282 7.5 7.5 0 4.136719-3.367188 7.5-7.5 7.5-4.136719 0-7.5-3.363281-7.5-7.5 0-4.136718 3.363281-7.5 7.5-7.5zm0 0"/><path d="m489.5 407.5h-29.988281v-3.832031c0-4.144531-3.359375-7.5-7.5-7.5-4.144531 0-7.5 3.355469-7.5 7.5v3.832031h-45.011719v-204.488281c0-23.992188-19.515625-43.511719-43.5-43.511719h-18.429688c3.78125-6.8125 5.9375-14.640625 5.9375-22.964844 0-7.949218-1.972656-15.445312-5.4375-22.035156h19.929688c47.703125 0 86.511719 38.808594 86.511719 86.511719v170.820312c0 4.144531 3.355469 7.5 7.5 7.5 4.140625 0 7.5-3.355469 7.5-7.5v-170.820312c0-55.976563-45.539063-101.511719-101.511719-101.511719h-32.296875c-6.71875-5.398438-14.933594-9.003906-23.914063-10.101562-3.917968-10.539063-14.085937-17.898438-25.769531-17.898438h-12.5v-26.773438c10.75-1.6875 19-11.011718 19-22.226562 0-12.40625-10.09375-22.5-22.5-22.5h-88c-12.40625 0-22.5 10.09375-22.5 22.5 0 11.214844 8.25 20.539062 19 22.226562v26.773438h-12.5c-15.164062 0-27.5 12.335938-27.5 27.5v28.917969c0 4.140625 3.359375 7.5 7.5 7.5s7.5-3.359375 7.5-7.5v-28.917969c0-6.894531 5.609375-12.5 12.5-12.5h120c3.511719 0 6.714844 1.460938 9 3.832031-20.90625 4.972657-36.507812 23.792969-36.507812 46.203125 0 23.644532 17.363281 43.300782 40.007812 46.902344v135.5625c0 6.894531-5.605469 12.5-12.5 12.5h-120c-6.890625 0-12.5-5.605469-12.5-12.5v-159.125c0-4.144531-3.359375-7.5-7.5-7.5s-7.5 3.355469-7.5 7.5v159.125c0 15.164062 12.335938 27.5 27.5 27.5h17.5v22.5c0 4.144531 3.359375 7.5 7.5 7.5h70c4.140625 0 7.5-3.355469 7.5-7.5v-22.5h17.5c15.164063 0 27.5-12.335938 27.5-27.5v-135.5625c7.789063-1.246094 14.957031-4.382812 21-8.9375h31.480469c15.714844 0 28.5 12.789062 28.5 28.511719v204.488281h-362c-12.40625 0-22.5 10.09375-22.5 22.5s10.09375 22.5 22.5 22.5h56.429688c3.742187 33.425781 32.164062 59.5 66.570312 59.5h221c34.40625 0 62.828125-26.074219 66.570312-59.5h56.429688c12.40625 0 22.5-10.09375 22.5-22.5s-10.09375-22.5-22.5-22.5zm-324.980469-385c0-4.136719 3.363281-7.5 7.5-7.5h88c4.136719 0 7.5 3.363281 7.5 7.5s-3.363281 7.5-7.5 7.5h-88c-4.136719 0-7.5-3.363281-7.5-7.5zm19 49v-26.5h65v26.5zm60 290h-55v-15h55zm19.992188-224.964844c0-17.921875 14.578125-32.5 32.5-32.5 17.917969 0 32.5 14.578125 32.5 32.5 0 17.898438-14.542969 32.457032-32.429688 32.496094-.023437 0-.042969 0-.0625 0-.023437 0-.042969 0-.066406 0-17.894531-.027344-32.441406-14.59375-32.441406-32.496094zm225.988281 300.964844h-353.5c-4.140625 0-7.5 3.355469-7.5 7.5s3.359375 7.5 7.5 7.5h281.953125c-3.648437 25.132812-25.328125 44.5-51.453125 44.5h-221c-26.125 0-47.804688-19.367188-51.453125-44.5h10.117187c4.144532 0 7.5-3.355469 7.5-7.5s-3.355468-7.5-7.5-7.5h-81.664062c-4.136719 0-7.5-3.363281-7.5-7.5s3.363281-7.5 7.5-7.5h467c4.136719 0 7.5 3.363281 7.5 7.5s-3.363281 7.5-7.5 7.5zm0 0"/><path d="m162.019531 317.5h108c4.140625 0 7.5-3.355469 7.5-7.5s-3.359375-7.5-7.5-7.5h-108c-4.140625 0-7.5 3.355469-7.5 7.5s3.359375 7.5 7.5 7.5zm0 0"/><path d="m162.019531 289.5h108c4.140625 0 7.5-3.355469 7.5-7.5s-3.359375-7.5-7.5-7.5h-108c-4.140625 0-7.5 3.355469-7.5 7.5s3.359375 7.5 7.5 7.5zm0 0"/></svg>