<?xml version="1.0" encoding="iso-8859-1"?>
<!-- Generator: Adobe Illustrator 19.0.0, SVG Export Plug-In . SVG Version: 6.00 Build 0)  -->
<svg version="1.1" id="Capa_1" xmlns="http://www.w3.org/2000/svg" xmlns:xlink="http://www.w3.org/1999/xlink" x="0px" y="0px"
	 viewBox="0 0 512 512" style="enable-background:new 0 0 512 512;" xml:space="preserve">
<path style="fill:#69F0F7;" d="M53.333,10.667h405.333c23.564,0,42.667,19.103,42.667,42.667v405.333
	c0,23.564-19.103,42.667-42.667,42.667H53.333c-23.564,0-42.667-19.103-42.667-42.667V53.333
	C10.667,29.769,29.769,10.667,53.333,10.667z"/>
<path style="fill:#4C5B66;" d="M458.667,512H53.333C23.893,511.965,0.035,488.107,0,458.667V53.333
	C0.035,23.893,23.893,0.035,53.333,0h405.333C488.107,0.035,511.965,23.893,512,53.333v405.333
	C511.965,488.107,488.107,511.965,458.667,512z M53.333,21.333c-17.673,0-32,14.327-32,32v405.333c0,17.673,14.327,32,32,32h405.333
	c17.673,0,32-14.327,32-32V53.333c0-17.673-14.327-32-32-32H53.333z"/>
<path style="fill:#D9EEF7;" d="M234.667,64c35.346,0.042,63.966,28.729,63.924,64.076c-0.033,28.14-18.444,52.957-45.364,61.151
	c-13.054,3.986-27.046,3.649-39.893-0.96v135.467c33.213-11.885,69.772,5.404,81.658,38.617c4.077,11.393,4.834,23.71,2.182,35.516
	c-7.567,34.485-41.656,56.306-76.141,48.739c-16.287-3.574-30.533-13.37-39.699-27.299c-19.474,29.498-59.174,37.624-88.671,18.15
	c-29.498-19.474-37.624-59.174-18.15-88.671c16.214-24.56,47.087-34.897,74.821-25.052V188.267
	c-33.213,11.885-69.772-5.404-81.658-38.617c-4.077-11.393-4.834-23.71-2.182-35.516c7.567-34.485,41.656-56.306,76.141-48.739
	c16.287,3.574,30.533,13.37,39.699,27.299C193.152,74.765,213.194,63.983,234.667,64L234.667,64z"/>
<g>
	<path style="fill:#4C5B66;" d="M128,458.667c-41.237,0.004-74.67-33.422-74.674-74.659c-0.003-32.911,21.542-61.943,53.042-71.474
		c10.453-3.195,21.486-4.023,32.299-2.421V288H160v35.733c-0.005,5.891-4.786,10.662-10.677,10.657
		c-1.207-0.001-2.404-0.207-3.542-0.609c-10.721-3.846-22.399-4.123-33.291-0.789c-28.194,8.528-44.136,38.296-35.609,66.49
		c8.528,28.194,38.296,44.136,66.49,35.609c11.92-3.605,22.203-11.269,29.065-21.661c1.973-2.989,5.315-4.788,8.896-4.789
		c3.573,0.001,6.909,1.791,8.885,4.768c12.31,18.487,34.724,27.499,56.405,22.677c20.052-4.558,35.677-20.273,40.117-40.352
		c3.485-15.92-0.438-32.561-10.667-45.248c-14.173-17.643-37.993-24.326-59.275-16.629c-5.571,1.915-11.64-1.05-13.554-6.621
		c-0.387-1.127-0.583-2.31-0.579-3.502V288H224v22.133c26.037-3.857,52.17,6.362,68.683,26.859
		c26.011,31.999,21.157,79.025-10.842,105.037c-29.955,24.35-73.532,21.851-100.508-5.762
		C167.305,450.622,148.072,458.7,128,458.667L128,458.667z"/>
	<path style="fill:#4C5B66;" d="M224,224h-21.333v-35.733c-0.003-5.891,4.771-10.669,10.662-10.671
		c1.215-0.001,2.422,0.207,3.567,0.613c10.715,3.86,22.392,4.141,33.28,0.8c28.194-8.528,44.136-38.296,35.609-66.49
		s-38.296-44.136-66.49-35.609c-11.92,3.605-22.203,11.269-29.065,21.661c-1.973,2.989-5.315,4.788-8.896,4.789
		c-3.573-0.001-6.909-1.791-8.885-4.768c-12.299-18.5-34.725-27.512-56.405-22.667c-20.068,4.557-35.698,20.296-40.117,40.395
		c-3.485,15.92,0.438,32.561,10.667,45.248c14.179,17.627,37.985,24.307,59.264,16.629c5.569-1.92,11.641,1.037,13.561,6.607
		c0.384,1.114,0.581,2.284,0.583,3.463V224h-21.333v-22.133c-26.041,3.893-52.191-6.333-68.683-26.859
		C43.973,143.009,48.827,95.983,80.825,69.971c29.955-24.35,73.532-21.852,100.508,5.762c28.839-29.476,76.112-29.993,105.588-1.155
		s29.993,76.112,1.155,105.588c-16.673,17.042-40.482,25.097-64.077,21.679V224z"/>
	<path style="fill:#4C5B66;" d="M341.333,288H320v-21.333H117.333v-21.333h213.333c5.891,0,10.667,4.776,10.667,10.667V288z"/>
	<path style="fill:#4C5B66;" d="M320,309.333h21.333v21.333H320V309.333z"/>
	<path style="fill:#4C5B66;" d="M362.667,309.333H384v21.333h-21.333V309.333z"/>
	<path style="fill:#4C5B66;" d="M330.667,352H416v21.333h-85.333V352z"/>
	<path style="fill:#4C5B66;" d="M330.667,394.667H416V416h-85.333V394.667z"/>
</g>
<path style="fill:#FFE451;" d="M384,74.667h64v128h-64V74.667z"/>
<g>
	<path style="fill:#4C5B66;" d="M448,213.333h-64c-5.891,0-10.667-4.776-10.667-10.667v-128C373.333,68.776,378.109,64,384,64h64
		c5.891,0,10.667,4.776,10.667,10.667v128C458.667,208.558,453.891,213.333,448,213.333z M394.667,192h42.667V85.333h-42.667V192z"
		/>
	<path style="fill:#4C5B66;" d="M373.333,234.667h85.333V256h-85.333V234.667z"/>
</g>
<g>
</g>
<g>
</g>
<g>
</g>
<g>
</g>
<g>
</g>
<g>
</g>
<g>
</g>
<g>
</g>
<g>
</g>
<g>
</g>
<g>
</g>
<g>
</g>
<g>
</g>
<g>
</g>
<g>
</g>
</svg>
