<?xml version="1.0" encoding="utf-8"?>
<!-- Generator: Adobe Illustrator 16.0.0, SVG Export Plug-In . SVG Version: 6.00 Build 0)  -->
<!DOCTYPE svg PUBLIC "-//W3C//DTD SVG 1.1//EN" "http://www.w3.org/Graphics/SVG/1.1/DTD/svg11.dtd">
<svg version="1.1" id="Capa_1" xmlns="http://www.w3.org/2000/svg" xmlns:xlink="http://www.w3.org/1999/xlink" x="0px" y="0px"
	 width="84px" height="99px" viewBox="0 0 84 99" enable-background="new 0 0 84 99" xml:space="preserve">
<g>
	<g>
		<path fill="#486D84" d="M42,15.383c-3.49,0-6.841,0.767-9.96,2.28c-0.611,0.296-0.867,1.033-0.57,1.644
			c0.296,0.612,1.033,0.867,1.644,0.57c2.782-1.349,5.772-2.033,8.887-2.033c11.247,0,20.396,9.15,20.396,20.397
			c0,6.5-3.142,12.667-8.405,16.5c-0.55,0.399-0.671,1.169-0.271,1.719c0.395,0.542,1.178,0.665,1.719,0.271
			c5.898-4.293,9.418-11.206,9.418-18.489C64.857,25.637,54.604,15.383,42,15.383z"/>
	</g>
</g>
<g>
	<g>
		<path fill="#486D84" d="M51.658,57.635c-0.268-0.623-0.991-0.912-1.615-0.645c-2.546,1.094-5.252,1.648-8.043,1.648
			c-11.247,0-20.397-9.15-20.397-20.397c0-6.212,2.782-12.011,7.633-15.909c0.53-0.426,0.614-1.2,0.188-1.729
			c-0.425-0.53-1.2-0.614-1.73-0.189c-5.435,4.367-8.552,10.865-8.552,17.827C19.142,50.846,29.396,61.1,42,61.1
			c3.127,0,6.16-0.622,9.014-1.848C51.639,58.983,51.927,58.26,51.658,57.635z"/>
	</g>
</g>
<g>
	<g>
		<path fill="#486D84" d="M53.932,29.484c-2.057-0.577-3.852,1.187-4.371,3.039c-0.279,0.994-0.244,2.026,0.098,2.906
			c0.385,0.988,1.135,1.703,2.059,1.961c2.057,0.577,3.852-1.187,4.371-3.038C56.606,32.502,55.986,30.06,53.932,29.484z
			 M53.719,33.688c-0.234,0.833-0.816,1.349-1.224,1.349c-0.274,0-0.451-0.264-0.543-0.5c-0.147-0.38-0.155-0.873-0.022-1.35
			c0.234-0.833,0.816-1.349,1.224-1.349c0.28,0,0.452,0.267,0.543,0.5C53.844,32.718,53.852,33.21,53.719,33.688z"/>
	</g>
</g>
<g>
	<g>
		<path fill="#486D84" d="M46.8,25.018c-2.234-0.371-3.901,1.7-4.233,3.706c-0.398,2.405,0.838,4.545,2.813,4.872
			c2.234,0.371,3.901-1.7,4.233-3.705C49.943,27.893,49.023,25.386,46.8,25.018z M47.186,29.488c-0.105,0.63-0.573,1.817-1.404,1.68
			c-0.517-0.085-0.963-0.978-0.787-2.042c0.168-1.009,0.814-1.687,1.313-1.687C47.19,27.438,47.283,28.897,47.186,29.488z"/>
	</g>
</g>
<g>
	<g>
		<path fill="#486D84" d="M34.439,32.522c-0.519-1.852-1.996-3.145-3.593-3.145c-1.299,0-2.377,0.887-2.836,2.069
			c-0.342,0.879-0.377,1.912-0.098,2.906c0.519,1.852,1.997,3.145,3.593,3.145C34.041,37.497,35.024,34.606,34.439,32.522z
			 M32.048,34.537c-0.091,0.234-0.261,0.5-0.543,0.5c-0.406,0-0.99-0.516-1.223-1.349c-0.09-0.32-0.156-0.926-0.004-1.359
			c0.081-0.229,0.222-0.409,0.454-0.475c0.669-0.188,1.202,0.848,1.338,1.333C32.204,33.664,32.196,34.156,32.048,34.537z"/>
	</g>
</g>
<g>
	<g>
		<path fill="#486D84" d="M41.434,28.724c-0.36-2.171-1.933-3.746-3.741-3.746c-2.501,0-3.661,2.77-3.306,4.913
			c0.331,2,2.009,4.074,4.233,3.706C40.596,33.269,41.832,31.128,41.434,28.724z M38.218,31.168
			c-0.802,0.133-1.303-1.072-1.403-1.68c-0.1-0.604-0.022-1.909,0.787-2.042c0.03-0.005,0.061-0.007,0.09-0.007
			c0.5,0,1.146,0.678,1.313,1.687C39.182,30.191,38.735,31.083,38.218,31.168z"/>
	</g>
</g>
<g>
	<g>
		<path fill="#486D84" d="M55.021,41.485c-1.153-2.042-3.013-3.31-4.853-3.31c-1.376,0-2.016-0.611-2.9-1.458
			C46.176,35.671,44.816,34.37,42,34.37c-2.815,0-4.175,1.301-5.268,2.347c-0.885,0.847-1.524,1.458-2.9,1.458
			c-1.839,0-3.699,1.269-4.853,3.31c-1.445,2.557-1.39,5.609,0.148,8.164c1.247,2.071,2.984,3.078,5.312,3.078
			c1.214,0,2.432-0.256,3.722-0.525c1.265-0.264,2.574-0.537,3.838-0.537c1.266,0,2.573,0.273,3.838,0.537
			c1.29,0.271,2.509,0.525,3.723,0.525l0,0c2.327,0,4.064-1.007,5.312-3.078C56.41,47.094,56.466,44.042,55.021,41.485z
			 M52.764,48.379c-0.807,1.339-1.734,1.886-3.203,1.886l0,0c-0.959,0-2.057-0.23-3.219-0.473c-1.387-0.291-2.822-0.59-4.342-0.59
			s-2.954,0.3-4.342,0.59c-1.162,0.242-2.259,0.473-3.218,0.473c-1.469,0-2.397-0.547-3.204-1.886
			c-1.075-1.785-1.117-3.909-0.115-5.684c0.696-1.232,1.786-2.06,2.71-2.06c2.364,0,3.604-1.187,4.601-2.141
			c0.972-0.93,1.739-1.664,3.567-1.664s2.596,0.734,3.566,1.664c0.998,0.954,2.238,2.141,4.602,2.141
			c0.925,0,2.014,0.828,2.711,2.06C53.881,44.47,53.838,46.595,52.764,48.379z"/>
	</g>
</g>
<g>
	<g>
		<path fill="#486D84" d="M60.463,61.104c0.086-0.249,0.159-0.504,0.217-0.766c0.373-1.703,1.714-3.045,3.417-3.417
			c1.903-0.416,3.552-1.622,4.526-3.309c0.974-1.687,1.193-3.718,0.602-5.574c-0.528-1.662-0.037-3.494,1.252-4.668
			c1.439-1.312,2.265-3.181,2.265-5.128c0-1.948-0.825-3.817-2.265-5.129c-1.289-1.174-1.78-3.006-1.252-4.668
			c0.592-1.856,0.372-3.887-0.602-5.574c-0.975-1.687-2.624-2.893-4.526-3.309c-1.703-0.373-3.045-1.714-3.417-3.417
			c-0.691-3.163-3.541-5.458-6.775-5.458c-0.713,0-1.422,0.111-2.107,0.33c-1.649,0.525-3.502,0.029-4.668-1.251
			C45.816,8.326,43.947,7.5,42,7.5s-3.817,0.826-5.128,2.266c-0.847,0.929-2.053,1.462-3.311,1.462
			c-1.181,0-2.271-0.541-3.466-0.541c-3.234,0-6.083,2.295-6.774,5.458c-0.373,1.703-1.714,3.044-3.417,3.417
			c-1.902,0.416-3.552,1.623-4.526,3.309c-0.974,1.687-1.193,3.718-0.603,5.574c0.529,1.661,0.038,3.493-1.251,4.667
			c-1.439,1.312-2.265,3.181-2.265,5.129c0,1.947,0.826,3.817,2.265,5.128c1.289,1.174,1.78,3.006,1.251,4.668
			c-0.591,1.856-0.372,3.888,0.603,5.574c0.974,1.687,2.624,2.893,4.526,3.309c1.703,0.373,3.045,1.714,3.417,3.417
			c0.057,0.262,0.13,0.517,0.216,0.766c-2.704,7.307-7.911,15.213-10.81,19.32c-0.525,0.744-0.592,1.707-0.175,2.513
			c0.527,1.017,1.72,1.536,2.821,1.224l7.366-2.091l2.733,7.888c0.32,0.928,1.303,1.543,2.263,1.543
			c0.731,0,1.415-0.326,1.877-0.894c5.567-6.847,9.046-15.402,11.056-21.755c0.436,0.086,0.882,0.131,1.332,0.131
			s0.896-0.045,1.332-0.131c2.01,6.353,5.488,14.908,11.056,21.755c0.462,0.567,1.146,0.894,1.877,0.894
			c0.951,0,1.946-0.623,2.264-1.543l2.732-7.887l7.366,2.09c1.096,0.311,2.29-0.197,2.822-1.224c0.417-0.806,0.35-1.768-0.176-2.513
			C68.374,76.316,63.168,68.41,60.463,61.104z M27.746,89.002l-2.723-7.859C25.012,81.111,25,81.08,24.986,81.05
			c-0.479-1.089-1.742-1.681-2.884-1.356l-7.311,2.074c2.747-3.897,7.458-11.051,10.361-18.042c1.067,1.087,2.475,1.8,4.016,2.007
			c1.008,0.135,2.061,0.045,3.037-0.266c1.648-0.525,3.504-0.026,4.668,1.251c0.001,0.001,0.003,0.003,0.005,0.005
			c0.436,0.458,0.941,0.898,1.492,1.236C36.705,73.23,33.317,82.125,27.746,89.002z M45.309,65.061
			c-0.844,0.928-2.055,1.461-3.309,1.461c-1.249,0-2.462-0.532-3.31-1.461c-1.787-1.959-4.684-2.75-7.234-1.938
			c-2.452,0.781-5.176-0.766-5.732-3.31c-0.578-2.64-2.656-4.719-5.295-5.295c-1.246-0.272-2.283-1.031-2.921-2.135
			c-0.638-1.105-0.775-2.383-0.389-3.598c0.82-2.575,0.059-5.414-1.938-7.234c-0.942-0.859-1.461-2.034-1.461-3.31
			s0.519-2.451,1.462-3.31c1.997-1.82,2.758-4.659,1.938-7.234c-0.387-1.215-0.249-2.493,0.389-3.597
			c0.638-1.104,1.675-1.863,2.921-2.135c2.64-0.577,4.718-2.656,5.295-5.295c0.446-2.041,2.285-3.522,4.371-3.522
			c1.182,0,2.271,0.541,3.466,0.541c1.948,0,3.818-0.826,5.129-2.266c0.859-0.942,2.034-1.461,3.31-1.461s2.451,0.519,3.31,1.462
			c1.312,1.44,3.182,2.266,5.13,2.266c1.195,0,2.285-0.541,3.465-0.541c2.087,0,3.925,1.481,4.371,3.523
			c0.578,2.64,2.656,4.718,5.295,5.295c1.246,0.272,2.283,1.031,2.922,2.135c0.637,1.104,0.775,2.382,0.389,3.597
			c-0.82,2.574-0.06,5.414,1.938,7.233c0.943,0.859,1.463,2.034,1.462,3.31c0,1.275-0.519,2.451-1.462,3.31
			c-1.997,1.819-2.758,4.659-1.938,7.234c0.387,1.215,0.248,2.492-0.389,3.597c-0.639,1.104-1.676,1.862-2.922,2.136
			c-2.639,0.576-4.718,2.655-5.295,5.295c-0.363,1.658-1.645,2.947-3.231,3.373c-1.337,0.357-2.581-0.22-3.901-0.354
			C48.977,62.611,46.775,63.449,45.309,65.061z M61.898,79.693c-1.15-0.326-2.401,0.262-2.885,1.356
			c-0.013,0.03-2.759,7.952-2.759,7.952c-5.571-6.875-8.96-15.771-10.624-21.043c-0.007-0.037,0.55-0.381,0.591-0.412
			c0.325-0.248,0.631-0.525,0.907-0.829c1.162-1.276,3.023-1.774,4.668-1.251c2.465,0.785,5.238,0.104,7.052-1.742
			c2.9,6.988,7.608,14.137,10.36,18.042L61.898,79.693z"/>
	</g>
</g>
</svg>
