<?xml version="1.0" encoding="iso-8859-1"?>
<!-- Generator: Adobe Illustrator 19.0.0, SVG Export Plug-In . SVG Version: 6.00 Build 0)  -->
<svg version="1.1" id="Capa_1" xmlns="http://www.w3.org/2000/svg" xmlns:xlink="http://www.w3.org/1999/xlink" x="0px" y="0px"
	 viewBox="0 0 512 512" style="enable-background:new 0 0 512 512;" xml:space="preserve">
<path style="fill:#03C0E0;" d="M504.471,195.765L504.471,195.765c-26.541-10.857-56.283-10.857-82.824,0l0,0v41.412
	c0,6.237,5.057,11.294,11.294,11.294l0,0c6.237,0,11.294,5.057,11.294,11.294v22.588c0,10.396,8.428,18.824,18.824,18.824l0,0
	c10.396,0,18.824-8.428,18.824-18.824v-22.588c0-6.237,5.057-11.294,11.294-11.294l0,0c6.237,0,11.294-5.057,11.294-11.294V195.765z
	"/>
<path style="fill:#DAEDF7;" d="M504.471,195.765c-26.541-10.857-56.283-10.857-82.824,0l0,0v22.588l0,0
	c26.541-10.857,56.283-10.857,82.824,0l0,0V195.765L504.471,195.765z"/>
<path style="fill:#FEC108;" d="M504.471,218.353c-26.541-10.857-56.283-10.857-82.824,0l0,0v22.588l0,0
	c26.541-10.857,56.283-10.857,82.824,0l0,0V218.353L504.471,218.353z"/>
<g>
	<polygon style="fill:#DAEDF7;" points="376.471,466.824 376.471,436.706 346.353,323.765 37.647,323.765 7.529,436.706 
		7.529,466.824 	"/>
	<polygon style="fill:#DAEDF7;" points="139.294,323.765 37.647,323.765 7.529,436.706 7.529,466.824 109.176,466.824 
		109.176,436.706 	"/>
</g>
<g>
	<circle style="fill:#FEC108;" cx="75.294" cy="399.059" r="15.059"/>
	<circle style="fill:#FEC108;" cx="192" cy="399.059" r="15.059"/>
	<circle style="fill:#FEC108;" cx="316.235" cy="399.059" r="15.059"/>
</g>
<rect x="7.529" y="45.176" style="fill:#03C0E0;" width="361.412" height="240.941"/>
<rect x="37.647" y="75.294" style="fill:#9AE6F3;" width="301.176" height="180.706"/>
<path style="fill:#FEDA6B;" d="M323.763,173.171c0,0-38.315,89.017-135.527,88.473c-60.686-0.339-112.412-38.235-135.529-90.353l0,0
	l97.882-97.882l0,0c9.629,10.417,22.343,16.941,37.647,16.941c14.361,0,27.38-5.743,36.886-15.059L323.763,173.171z"/>
<rect x="7.529" y="434.819" style="fill:#03C0E0;" width="368.941" height="32"/>
<rect x="7.529" y="434.819" style="fill:#0290A8;" width="103.524" height="32"/>
<g>
	<path style="fill:#FEC108;" d="M150.588,73.41l-97.882,97.882c11.613,26.182,3.311,8.132,15.059,24.473L171.294,90.351"/>
	<path style="fill:#FEC108;" d="M227.765,73.41l97.882,97.882c-11.613,26.182-3.311,8.132-15.059,24.473L207.059,90.351"/>
</g>
<path d="M376.471,293.647H0v-256h376.471V293.647z M15.059,278.588h346.353V52.706H15.059V278.588z"/>
<rect x="444.235" y="203.294" width="39.524" height="15.059"/>
<path d="M507.322,188.797c-28.543-11.678-59.982-11.678-88.526,0l-4.678,1.913v46.467c0,10.38,8.444,18.824,18.824,18.824
	c2.075,0,3.765,1.689,3.765,3.765v22.588c0,11.915,7.95,22.003,18.824,25.252v8.631h15.059v-8.631
	c10.873-3.249,18.824-13.336,18.824-25.252v-22.588c0-2.076,1.69-3.765,3.765-3.765c10.38,0,18.823-8.444,18.823-18.824V190.71
	L507.322,188.797z M496.941,237.176c0,2.076-1.69,3.765-3.765,3.765c-10.38,0-18.824,8.444-18.824,18.824v22.588
	c0,6.227-5.067,11.294-11.294,11.294c-6.227,0-11.294-5.067-11.294-11.294v-22.588c0-10.38-8.444-18.824-18.824-18.824
	c-2.075,0-3.765-1.689-3.765-3.765V200.95c22.025-7.794,45.74-7.794,67.765,0V237.176z"/>
<g>
	<rect x="455.529" y="331.294" style="fill:#03C0E0;" width="15.059" height="15.059"/>
	<rect x="455.529" y="361.412" style="fill:#03C0E0;" width="15.059" height="15.059"/>
</g>
<path d="M455.529,391.529v58.353c0,5.189-4.223,9.412-9.412,9.412s-9.412-4.223-9.412-9.412v-6.099
	c0-20.51-16.686-37.195-37.196-37.195h-23.278l-24.094-90.353h-20.843v-7.529h-15.059v7.529H67.765v-7.529H52.706v7.529H31.862
	L0,435.719v38.634h384v-38.634l-3.753-14.072h19.262c12.207,0,22.137,9.931,22.137,22.136v6.099
	c0,13.493,10.978,24.471,24.471,24.471s24.471-10.978,24.471-24.471v-58.353H455.529z M15.059,459.294v-15.059h323.765v-15.059
	H17.33l26.102-97.882h297.138l26.102,97.882h-14.67v15.059h16.94v15.059H15.059z"/>
<path d="M189.11,269.176c-0.305,0-0.609-0.001-0.917-0.002c-61.086-0.342-116.97-37.565-142.369-94.829l-2.095-4.723L150.802,62.547
	l5.316,5.751c8.907,9.637,19.713,14.523,32.117,14.523c11.894,0,23.122-4.584,31.617-12.906l5.303-5.196L332.706,171.44
	l-2.028,4.709c-0.414,0.962-10.392,23.806-32.845,46.732C277.108,244.039,241.462,269.176,189.11,269.176z M61.751,172.894
	c23.902,49.21,73.024,80.921,126.526,81.22c0.285,0.001,0.571,0.002,0.857,0.002c37.655,0,70.474-13.922,97.562-41.389
	c14.975-15.185,24.041-30.608,27.927-38.019l-89.856-89.162c-10.45,7.997-23.177,12.332-36.533,12.332
	c-13.991,0-26.829-4.79-37.539-13.93L61.751,172.894z"/>
<g>
	<rect x="30.118" y="248.471" style="fill:#FFFFFF;" width="15.059" height="15.059"/>
	<rect x="60.235" y="248.471" style="fill:#FFFFFF;" width="15.059" height="15.059"/>
	<rect x="301.176" y="248.471" style="fill:#FFFFFF;" width="15.059" height="15.059"/>
	<rect x="331.294" y="248.471" style="fill:#FFFFFF;" width="15.059" height="15.059"/>
	<rect x="30.118" y="67.765" style="fill:#FFFFFF;" width="45.176" height="15.059"/>
	<rect x="90.353" y="67.765" style="fill:#FFFFFF;" width="15.059" height="15.059"/>
	<rect x="30.118" y="97.882" style="fill:#FFFFFF;" width="30.118" height="15.059"/>
	<rect x="30.118" y="128" style="fill:#FFFFFF;" width="15.059" height="15.059"/>
	<rect x="301.176" y="67.765" style="fill:#FFFFFF;" width="45.176" height="15.059"/>
	<rect x="271.059" y="67.765" style="fill:#FFFFFF;" width="15.059" height="15.059"/>
	<rect x="316.235" y="97.882" style="fill:#FFFFFF;" width="30.118" height="15.059"/>
	<rect x="331.294" y="128" style="fill:#FFFFFF;" width="15.059" height="15.059"/>
</g>
<path d="M82.824,377.766v-8.824H67.765v8.824c-8.763,3.108-15.059,11.477-15.059,21.293c0,12.456,10.134,22.588,22.588,22.588
	s22.588-10.133,22.588-22.588C97.882,389.243,91.587,380.874,82.824,377.766z M75.294,406.588c-4.152,0-7.529-3.377-7.529-7.529
	c0-4.152,3.377-7.529,7.529-7.529s7.529,3.377,7.529,7.529C82.824,403.211,79.446,406.588,75.294,406.588z"/>
<path d="M199.529,377.766v-8.824h-15.059v8.824c-8.763,3.108-15.059,11.477-15.059,21.293c0,12.456,10.134,22.588,22.588,22.588
	c12.455,0,22.588-10.133,22.588-22.588C214.588,389.243,208.293,380.874,199.529,377.766z M192,406.588
	c-4.152,0-7.529-3.377-7.529-7.529c0-4.152,3.377-7.529,7.529-7.529s7.529,3.377,7.529,7.529
	C199.529,403.211,196.152,406.588,192,406.588z"/>
<path d="M323.765,377.766v-8.824h-15.059v8.824c-8.763,3.108-15.059,11.477-15.059,21.293c0,12.456,10.134,22.588,22.588,22.588
	s22.588-10.133,22.588-22.588C338.824,389.243,332.528,380.874,323.765,377.766z M316.235,406.588c-4.152,0-7.529-3.377-7.529-7.529
	c0-4.152,3.377-7.529,7.529-7.529c4.152,0,7.529,3.377,7.529,7.529C323.765,403.211,320.388,406.588,316.235,406.588z"/>
<rect x="64" y="338.824" width="15.059" height="15.059"/>
<rect x="94.118" y="338.824" style="fill:#03C0E0;" width="15.059" height="15.059"/>
<rect x="124.235" y="338.824" width="15.059" height="15.059"/>
<rect x="154.353" y="338.824" style="fill:#03C0E0;" width="15.059" height="15.059"/>
<rect x="184.471" y="338.824" width="15.059" height="15.059"/>
<rect x="214.588" y="338.824" style="fill:#03C0E0;" width="15.059" height="15.059"/>
<rect x="244.706" y="338.824" width="15.059" height="15.059"/>
<rect x="274.824" y="338.824" style="fill:#03C0E0;" width="15.059" height="15.059"/>
<rect x="304.941" y="338.824" width="15.059" height="15.059"/>
<g>
</g>
<g>
</g>
<g>
</g>
<g>
</g>
<g>
</g>
<g>
</g>
<g>
</g>
<g>
</g>
<g>
</g>
<g>
</g>
<g>
</g>
<g>
</g>
<g>
</g>
<g>
</g>
<g>
</g>
</svg>
