<svg id="Camada_1" data-name="Camada 1" xmlns="http://www.w3.org/2000/svg" xmlns:xlink="http://www.w3.org/1999/xlink" viewBox="0 0 500 500"><defs><style>.cls-1{fill:none;}.cls-2{fill:#f87c66;}.cls-3{fill:#fff;}.cls-4{fill:#dc9c27;}.cls-5{fill:#ae5e16;}.cls-6{fill:#d86048;}.cls-7{opacity:0.52;}.cls-8{fill:#76aadb;}.cls-9{fill:#e6f4ff;opacity:0.71;}.cls-10{fill:#7fb3d6;opacity:0.38;}.cls-11{fill:#373c42;}.cls-12{fill:#fca597;}.cls-13{fill:#ffc8bd;}.cls-14{clip-path:url(#clip-path);}.cls-15{fill:#f8cd66;}.cls-16{fill:#afcee4;}.cls-17{fill:#d48377;}</style><clipPath id="clip-path"><circle class="cls-1" cx="256.17" cy="242.68" r="233.68"/></clipPath></defs><title>Ícone anfitriões vs2</title><circle class="cls-2" cx="256.17" cy="242.68" r="233.68"/><path class="cls-3" d="M120.94,284.28,54.65,261.5a3.87,3.87,0,0,0-4.9,2.4L28.17,297.55c1.17,11.49,5,22.72,9.51,33.3a255.05,255.05,0,0,0,15.58,30.49,262.57,262.57,0,0,0,20.11,29.31c3.86,4.87,7.94,9.53,12.09,14.13.64.51,1.3,1,2,1.48a2.34,2.34,0,0,1,.31.24,2.2,2.2,0,0,1,.28.18l35.31-117.5A3.87,3.87,0,0,0,120.94,284.28Z"/><circle class="cls-4" cx="99.68" cy="305.37" r="11.88"/><path class="cls-5" d="M190,262.9c3.86,27.55-3.66,27.44-12.73,28.71s-16.27,3.45-20.14-24.1-2.94-74.39,6.14-75.67S186.14,235.35,190,262.9Z"/><path class="cls-3" d="M181,247c-12.86,37.43-54.59,48.18-94.92,34.33s-64-47.09-51.15-84.52,50.44-51.08,90.77-37.23S193.9,209.58,181,247Z"/><path class="cls-5" d="M46.44,230.44c-18.61,20.68-23.36,14.85-30.17,8.72s-13.1-10.25,5.51-30.93,55.1-50.07,61.91-43.94S65.06,209.77,46.44,230.44Z"/><rect class="cls-6" x="41.55" y="274.14" width="90.28" height="13.07" rx="2.62" ry="2.62" transform="translate(95.91 -12.94) rotate(18.96)"/><g class="cls-7"><circle class="cls-8" cx="230.67" cy="351.23" r="43.18"/></g><ellipse class="cls-9" cx="208.65" cy="339.82" rx="12.1" ry="6.78" transform="translate(-188.43 376.48) rotate(-63.72)"/><ellipse class="cls-10" cx="254.07" cy="363.15" rx="12.1" ry="6.78" transform="translate(-184.03 430.21) rotate(-63.72)"/><path class="cls-11" d="M267,344.46a36.94,36.94,0,1,1-71-5.92c5.13-14.55,19.65-24.33,35-24.24,17.76.11,32.45,13,36,30.16.7,3.31,4.59,5.23,7.7,4.37a6.37,6.37,0,0,0,4.37-7.69c-4.12-19.68-20.5-35.68-40.5-38.69-20.51-3.08-41.42,6.76-51.34,25.2a49.42,49.42,0,0,0,62.67,69.1c21.82-9.2,33.51-32.6,29.17-55.61-.62-3.33-4.63-5.22-7.7-4.38C267.87,337.72,266.35,341.13,267,344.46Z"/><rect class="cls-11" x="230.52" y="388.6" width="27.89" height="68.37" rx="5.6" ry="5.6" transform="translate(-77.88 55.9) rotate(-11.27)"/><rect class="cls-12" x="255.91" y="403.63" width="30.04" height="43.18" rx="6.03" ry="6.03" transform="translate(-77.85 61.12) rotate(-11.27)"/><rect class="cls-13" x="212.11" y="406.18" width="70.1" height="81.36" rx="14.06" ry="14.06" transform="translate(-82.53 56.89) rotate(-11.27)"/><g class="cls-14"><ellipse class="cls-3" cx="416.83" cy="428.24" rx="105.02" ry="122.62" transform="translate(-84.82 103.45) rotate(-12.85)"/><circle class="cls-15" cx="410.65" cy="248.94" r="53.95"/><ellipse cx="349.5" cy="160.67" rx="89.81" ry="85.9" transform="translate(-26.98 81.77) rotate(-12.85)"/><rect x="386.24" y="113.22" width="77.01" height="255.19" rx="15.33" ry="15.33" transform="translate(-42.93 100.52) rotate(-12.85)"/><path d="M265.93,131.58S236.37,205.65,304,315.15l66.82-9L329.94,127l-61.8,3.88Z"/><polygon class="cls-13" points="350.49 269.64 363.65 327.33 419.16 314.66 405.42 254.43 350.49 269.64"/><polygon class="cls-12" points="357.15 298.27 412.7 286.17 407.82 264.77 351.91 276.95 357.15 298.27"/><path class="cls-13" d="M268.86,133.82l22.61,99.1h.07c10.24,37.67,50.51,60.43,91.43,51.1s67.33-47.32,60.22-85.7l.06,0-22.61-99.1Z"/><path d="M401.23,103.66s-34.6,59.15-118.68,91.55l-14.22-62.32Z"/><path d="M401.23,103.66s2.06,22.64,30.15,40.29L421.14,99.07S401,102.55,401.23,103.66Z"/><path d="M330.4,76.92S421.89,55.2,436.45,119l-15.88,4.83L396.44,92.07Z"/><ellipse class="cls-3" cx="417.26" cy="430.12" rx="105.02" ry="122.62" transform="translate(-85.22 103.59) rotate(-12.85)"/><path class="cls-13" d="M394.17,328.05a78.25,78.25,0,0,0,24.77-10l-2.61-11.41a91,91,0,0,0-54.12,13.19l2.16,9.45C372.5,330.87,383,330.59,394.17,328.05Z"/><path class="cls-16" d="M429.11,308.45a94.72,94.72,0,0,0-12.78-1.8l2.61,11.41,50.19,220c40.95-23.43,62.77-77.56,50.09-133.14C507.7,354.38,471,317.31,429.11,308.45Z"/><path class="cls-16" d="M314.44,451.61c12.44,54.51,54.19,93.37,100.2,98L364.37,329.29l-2.16-9.45a97,97,0,0,0-8.18,5.61C320,351.58,302.89,401,314.44,451.61Z"/><path d="M359.26,306.4l21.11,92.51S337.76,372.13,304,315.1"/></g><circle cx="106.53" cy="218.35" r="14.82"/><ellipse cx="168.06" cy="240.11" rx="14.82" ry="12.89" transform="translate(-103.15 351.21) rotate(-77.29)"/><ellipse cx="137.78" cy="241.6" rx="6.82" ry="10.07" transform="translate(-135.48 293.39) rotate(-71.04)"/><path class="cls-17" d="M143.43,259.33c-3.26,9.47-13.14,14.67-22.06,11.6s-13.53-13.24-10.27-22.71"/><path class="cls-3" d="M389.12,199.26a23.44,23.44,0,1,1-45.7,10.42"/><circle cx="329.01" cy="186.07" r="14.18"/><circle cx="394.48" cy="169.4" r="14.82"/></svg>